<ttFont>
<head>
    <!-- Most of this table will be recalculated by the compiler -->
    <tableVersion value="1.0"/>
    <fontRevision value="0.84999"/>
    <checkSumAdjustment value="0x35bd62e1"/>
    <magicNumber value="0x5f0f3cf5"/>
    <flags value="00000000 00000111"/>
    <unitsPerEm value="1000"/>
    <created value="Sat Nov 28 12:14:13 2020"/>
    <modified value="Wed Sep  1 18:33:30 2021"/>
    <xMin value="-141"/>
    <yMin value="-216"/>
    <xMax value="675"/>
    <yMax value="1024"/>
    <macStyle value="00000000 00000000"/>
    <lowestRecPPEM value="7"/>
    <fontDirectionHint value="2"/>
    <indexToLocFormat value="0"/>
    <glyphDataFormat value="0"/>
  </head>
    <TTGlyph name=".notdef" xMin="98" yMin="-200" xMax="431" yMax="850">
      <contour>
        <pt x="431" y="-200" on="1"/>
        <pt x="98" y="-200" on="1"/>
        <pt x="98" y="850" on="1"/>
        <pt x="431" y="850" on="1"/>
      </contour>
      <contour>
        <pt x="350" y="-128" on="1"/>
        <pt x="350" y="-93" on="1"/>
        <pt x="243" y="-93" on="1"/>
        <pt x="316" y="-44" on="1"/>
        <pt x="350" y="-44" on="1"/>
        <pt x="350" y="-9" on="1"/>
        <pt x="175" y="-9" on="1"/>
        <pt x="175" y="-44" on="1"/>
        <pt x="249" y="-44" on="1"/>
        <pt x="175" y="-93" on="1"/>
        <pt x="175" y="-128" on="1"/>
      </contour>
      <contour>
        <pt x="350" y="15" on="1"/>
        <pt x="350" y="134" on="1"/>
        <pt x="175" y="134" on="1"/>
        <pt x="175" y="15" on="1"/>
      </contour>
      <contour>
        <pt x="350" y="197" on="1"/>
        <pt x="350" y="316" on="1"/>
        <pt x="245" y="316" on="1"/>
        <pt x="245" y="257" on="1"/>
        <pt x="280" y="257" on="1"/>
        <pt x="280" y="281" on="1"/>
        <pt x="315" y="281" on="1"/>
        <pt x="315" y="232" on="1"/>
        <pt x="210" y="232" on="1"/>
        <pt x="210" y="316" on="1"/>
        <pt x="175" y="316" on="1"/>
        <pt x="175" y="197" on="1"/>
      </contour>
      <contour>
        <pt x="350" y="339" on="1"/>
        <pt x="350" y="444" on="1"/>
        <pt x="315" y="444" on="1"/>
        <pt x="315" y="374" on="1"/>
        <pt x="175" y="374" on="1"/>
        <pt x="175" y="339" on="1"/>
      </contour>
      <contour>
        <pt x="280" y="399" on="1"/>
        <pt x="280" y="472" on="1"/>
        <pt x="350" y="472" on="1"/>
        <pt x="350" y="507" on="1"/>
        <pt x="175" y="507" on="1"/>
        <pt x="175" y="472" on="1"/>
        <pt x="245" y="472" on="1"/>
        <pt x="245" y="433" on="1"/>
        <pt x="175" y="433" on="1"/>
        <pt x="175" y="399" on="1"/>
      </contour>
      <contour>
        <pt x="350" y="535" on="1"/>
        <pt x="350" y="571" on="1"/>
        <pt x="280" y="571" on="1"/>
        <pt x="280" y="644" on="1"/>
        <pt x="175" y="644" on="1"/>
        <pt x="175" y="535" on="1"/>
      </contour>
      <contour>
        <pt x="350" y="672" on="1"/>
        <pt x="350" y="706" on="1"/>
        <pt x="280" y="706" on="1"/>
        <pt x="280" y="745" on="1"/>
        <pt x="350" y="745" on="1"/>
        <pt x="350" y="780" on="1"/>
        <pt x="176" y="780" on="1"/>
        <pt x="176" y="745" on="1"/>
        <pt x="245" y="745" on="1"/>
        <pt x="245" y="706" on="1"/>
        <pt x="175" y="706" on="1"/>
        <pt x="175" y="672" on="1"/>
      </contour>
      <contour>
        <pt x="210" y="99" on="1"/>
        <pt x="315" y="99" on="1"/>
        <pt x="315" y="50" on="1"/>
        <pt x="210" y="50" on="1"/>
      </contour>
      <contour>
        <pt x="210" y="609" on="1"/>
        <pt x="245" y="609" on="1"/>
        <pt x="245" y="571" on="1"/>
        <pt x="210" y="571" on="1"/>
      </contour>
    </TTGlyph>
    <TTGlyph name="A" xMin="55" yMin="0" xMax="645" yMax="800">
      <contour>
        <pt x="461" y="276" on="1"/>
        <pt x="233" y="276" on="1"/>
        <pt x="163" y="0" on="1"/>
        <pt x="55" y="0" on="1"/>
        <pt x="262" y="800" on="1"/>
        <pt x="438" y="800" on="1"/>
        <pt x="645" y="0" on="1"/>
        <pt x="531" y="0" on="1"/>
      </contour>
      <contour>
        <pt x="436" y="377" on="1"/>
        <pt x="347" y="730" on="1"/>
        <pt x="258" y="377" on="1"/>
      </contour>
    </TTGlyph>
    <TTGlyph name="B" xMin="116" yMin="0" xMax="630" yMax="800">
      <contour>
        <pt x="492" y="800" on="0"/>
        <pt x="630" y="686" on="0"/>
        <pt x="630" y="583" on="1"/>
        <pt x="630" y="510" on="0"/>
        <pt x="555" y="424" on="0"/>
        <pt x="483" y="416" on="1"/>
        <pt x="483" y="387" on="1"/>
        <pt x="552" y="378" on="0"/>
        <pt x="625" y="291" on="0"/>
        <pt x="625" y="217" on="1"/>
        <pt x="625" y="115" on="0"/>
        <pt x="485" y="0" on="0"/>
        <pt x="361" y="0" on="1"/>
        <pt x="116" y="0" on="1"/>
        <pt x="116" y="800" on="1"/>
        <pt x="367" y="800" on="1"/>
      </contour>
      <contour>
        <pt x="361" y="104" on="1"/>
        <pt x="438" y="104" on="0"/>
        <pt x="519" y="167" on="0"/>
        <pt x="519" y="227" on="1"/>
        <pt x="519" y="288" on="0"/>
        <pt x="438" y="351" on="0"/>
        <pt x="361" y="351" on="1"/>
        <pt x="224" y="351" on="1"/>
        <pt x="224" y="104" on="1"/>
      </contour>
      <contour>
        <pt x="367" y="451" on="1"/>
        <pt x="444" y="451" on="0"/>
        <pt x="524" y="514" on="0"/>
        <pt x="524" y="574" on="1"/>
        <pt x="524" y="633" on="0"/>
        <pt x="443" y="696" on="0"/>
        <pt x="367" y="696" on="1"/>
        <pt x="224" y="696" on="1"/>
        <pt x="224" y="451" on="1"/>
      </contour>
    </TTGlyph>
    <TTGlyph name="C" xMin="84" yMin="-16" xMax="642" yMax="816">
      <contour>
        <pt x="226" y="-16" on="0"/>
        <pt x="84" y="193" on="0"/>
        <pt x="84" y="400" on="1"/>
        <pt x="84" y="607" on="0"/>
        <pt x="230" y="816" on="0"/>
        <pt x="374" y="816" on="1"/>
        <pt x="490" y="816" on="0"/>
        <pt x="628" y="666" on="0"/>
        <pt x="642" y="524" on="1"/>
        <pt x="536" y="524" on="1"/>
        <pt x="524" y="620" on="0"/>
        <pt x="445" y="712" on="0"/>
        <pt x="374" y="712" on="1"/>
        <pt x="280" y="712" on="0"/>
        <pt x="192" y="560" on="0"/>
        <pt x="192" y="400" on="1"/>
        <pt x="192" y="240" on="0"/>
        <pt x="276" y="88" on="0"/>
        <pt x="364" y="88" on="1"/>
        <pt x="434" y="88" on="0"/>
        <pt x="511" y="173" on="0"/>
        <pt x="523" y="262" on="1"/>
        <pt x="629" y="262" on="1"/>
        <pt x="613" y="125" on="0"/>
        <pt x="479" y="-16" on="0"/>
        <pt x="364" y="-16" on="1"/>
      </contour>
    </TTGlyph>
    <TTGlyph name="D" xMin="96" yMin="0" xMax="625" yMax="800">
      <contour>
        <pt x="96" y="800" on="1"/>
        <pt x="302" y="800" on="1"/>
        <pt x="625" y="800" on="0"/>
        <pt x="625" y="400" on="1"/>
        <pt x="625" y="0" on="0"/>
        <pt x="302" y="0" on="1"/>
        <pt x="96" y="0" on="1"/>
      </contour>
      <contour>
        <pt x="302" y="104" on="1"/>
        <pt x="517" y="104" on="0"/>
        <pt x="517" y="400" on="1"/>
        <pt x="517" y="696" on="0"/>
        <pt x="302" y="696" on="1"/>
        <pt x="204" y="696" on="1"/>
        <pt x="204" y="104" on="1"/>
      </contour>
    </TTGlyph>
    <TTGlyph name="E" xMin="137" yMin="0" xMax="611" yMax="800">
      <contour>
        <pt x="137" y="800" on="1"/>
        <pt x="611" y="800" on="1"/>
        <pt x="611" y="696" on="1"/>
        <pt x="245" y="696" on="1"/>
        <pt x="245" y="453" on="1"/>
        <pt x="555" y="453" on="1"/>
        <pt x="555" y="353" on="1"/>
        <pt x="245" y="353" on="1"/>
        <pt x="245" y="104" on="1"/>
        <pt x="591" y="104" on="1"/>
        <pt x="591" y="0" on="1"/>
        <pt x="137" y="0" on="1"/>
      </contour>
    </TTGlyph>
    <TTGlyph name="Euro" xMin="40" yMin="-16" xMax="647" yMax="816">
      <contour>
        <pt x="284" y="-16" on="0"/>
        <pt x="154" y="132" on="0"/>
        <pt x="136" y="278" on="1"/>
        <pt x="40" y="278" on="1"/>
        <pt x="40" y="365" on="1"/>
        <pt x="130" y="365" on="1"/>
        <pt x="129" y="376" on="0"/>
        <pt x="129" y="400" on="1"/>
        <pt x="129" y="434" on="0"/>
        <pt x="130" y="450" on="1"/>
        <pt x="40" y="450" on="1"/>
        <pt x="40" y="537" on="1"/>
        <pt x="138" y="537" on="1"/>
        <pt x="158" y="676" on="0"/>
        <pt x="288" y="816" on="0"/>
        <pt x="396" y="816" on="1"/>
        <pt x="508" y="816" on="0"/>
        <pt x="637" y="673" on="0"/>
        <pt x="647" y="539" on="1"/>
        <pt x="543" y="539" on="1"/>
        <pt x="533" y="628" on="0"/>
        <pt x="462" y="712" on="0"/>
        <pt x="396" y="712" on="1"/>
        <pt x="334" y="712" on="0"/>
        <pt x="260" y="626" on="0"/>
        <pt x="245" y="537" on="1"/>
        <pt x="457" y="537" on="1"/>
        <pt x="457" y="450" on="1"/>
        <pt x="237" y="450" on="1"/>
        <pt x="236" y="434" on="0"/>
        <pt x="236" y="400" on="1"/>
        <pt x="236" y="365" on="1"/>
        <pt x="457" y="365" on="1"/>
        <pt x="457" y="278" on="1"/>
        <pt x="243" y="278" on="1"/>
        <pt x="256" y="181" on="0"/>
        <pt x="330" y="88" on="0"/>
        <pt x="394" y="88" on="1"/>
        <pt x="451" y="88" on="0"/>
        <pt x="515" y="163" on="0"/>
        <pt x="525" y="241" on="1"/>
        <pt x="630" y="241" on="1"/>
        <pt x="618" y="116" on="0"/>
        <pt x="497" y="-16" on="0"/>
        <pt x="394" y="-16" on="1"/>
      </contour>
    </TTGlyph>
    <TTGlyph name="F" xMin="154" yMin="0" xMax="629" yMax="800">
      <contour>
        <pt x="154" y="800" on="1"/>
        <pt x="629" y="800" on="1"/>
        <pt x="629" y="696" on="1"/>
        <pt x="262" y="696" on="1"/>
        <pt x="262" y="443" on="1"/>
        <pt x="582" y="443" on="1"/>
        <pt x="582" y="339" on="1"/>
        <pt x="262" y="339" on="1"/>
        <pt x="262" y="0" on="1"/>
        <pt x="154" y="0" on="1"/>
      </contour>
    </TTGlyph>
    <TTGlyph name="G" xMin="74" yMin="-16" xMax="631" yMax="816">
      <contour>
        <pt x="209" y="-16" on="0"/>
        <pt x="74" y="196" on="0"/>
        <pt x="74" y="400" on="1"/>
        <pt x="74" y="606" on="0"/>
        <pt x="222" y="816" on="0"/>
        <pt x="367" y="816" on="1"/>
        <pt x="482" y="816" on="0"/>
        <pt x="617" y="678" on="0"/>
        <pt x="631" y="544" on="1"/>
        <pt x="526" y="544" on="1"/>
        <pt x="514" y="630" on="0"/>
        <pt x="437" y="712" on="0"/>
        <pt x="367" y="712" on="1"/>
        <pt x="272" y="712" on="0"/>
        <pt x="182" y="560" on="0"/>
        <pt x="182" y="400" on="1"/>
        <pt x="182" y="239" on="0"/>
        <pt x="270" y="85" on="0"/>
        <pt x="361" y="85" on="1"/>
        <pt x="429" y="85" on="0"/>
        <pt x="504" y="186" on="0"/>
        <pt x="516" y="293" on="1"/>
        <pt x="341" y="293" on="1"/>
        <pt x="341" y="397" on="1"/>
        <pt x="607" y="397" on="1"/>
        <pt x="607" y="0" on="1"/>
        <pt x="513" y="0" on="1"/>
        <pt x="513" y="91" on="1"/>
        <pt x="484" y="91" on="1"/>
        <pt x="451" y="-16" on="0"/>
        <pt x="332" y="-16" on="1"/>
      </contour>
    </TTGlyph>
    <TTGlyph name="H" xMin="96" yMin="0" xMax="604" yMax="800">
      <contour>
        <pt x="204" y="800" on="1"/>
        <pt x="204" y="454" on="1"/>
        <pt x="496" y="454" on="1"/>
        <pt x="496" y="800" on="1"/>
        <pt x="604" y="800" on="1"/>
        <pt x="604" y="0" on="1"/>
        <pt x="496" y="0" on="1"/>
        <pt x="496" y="352" on="1"/>
        <pt x="204" y="352" on="1"/>
        <pt x="204" y="0" on="1"/>
        <pt x="96" y="0" on="1"/>
        <pt x="96" y="800" on="1"/>
      </contour>
    </TTGlyph>
    <TTGlyph name="I" xMin="116" yMin="0" xMax="584" yMax="800">
      <contour>
        <pt x="116" y="104" on="1"/>
        <pt x="296" y="104" on="1"/>
        <pt x="296" y="696" on="1"/>
        <pt x="116" y="696" on="1"/>
        <pt x="116" y="800" on="1"/>
        <pt x="584" y="800" on="1"/>
        <pt x="584" y="696" on="1"/>
        <pt x="404" y="696" on="1"/>
        <pt x="404" y="104" on="1"/>
        <pt x="584" y="104" on="1"/>
        <pt x="584" y="0" on="1"/>
        <pt x="116" y="0" on="1"/>
      </contour>
    </TTGlyph>
    <TTGlyph name="J" xMin="97" yMin="-16" xMax="577" yMax="800">
      <contour>
        <pt x="224" y="-16" on="0"/>
        <pt x="97" y="117" on="0"/>
        <pt x="97" y="234" on="1"/>
        <pt x="97" y="350" on="1"/>
        <pt x="203" y="350" on="1"/>
        <pt x="203" y="234" on="1"/>
        <pt x="203" y="164" on="0"/>
        <pt x="272" y="88" on="0"/>
        <pt x="336" y="88" on="1"/>
        <pt x="400" y="88" on="0"/>
        <pt x="469" y="163" on="0"/>
        <pt x="469" y="234" on="1"/>
        <pt x="469" y="696" on="1"/>
        <pt x="154" y="696" on="1"/>
        <pt x="154" y="800" on="1"/>
        <pt x="577" y="800" on="1"/>
        <pt x="577" y="234" on="1"/>
        <pt x="577" y="117" on="0"/>
        <pt x="449" y="-16" on="0"/>
        <pt x="336" y="-16" on="1"/>
      </contour>
    </TTGlyph>
    <TTGlyph name="K" xMin="134" yMin="0" xMax="669" yMax="800">
      <contour>
        <pt x="242" y="800" on="1"/>
        <pt x="242" y="431" on="1"/>
        <pt x="539" y="800" on="1"/>
        <pt x="669" y="800" on="1"/>
        <pt x="336" y="390" on="1"/>
        <pt x="654" y="0" on="1"/>
        <pt x="518" y="0" on="1"/>
        <pt x="242" y="343" on="1"/>
        <pt x="242" y="0" on="1"/>
        <pt x="134" y="0" on="1"/>
        <pt x="134" y="800" on="1"/>
      </contour>
    </TTGlyph>
    <TTGlyph name="L" xMin="173" yMin="0" xMax="628" yMax="800">
      <contour>
        <pt x="173" y="800" on="1"/>
        <pt x="281" y="800" on="1"/>
        <pt x="281" y="104" on="1"/>
        <pt x="628" y="104" on="1"/>
        <pt x="628" y="0" on="1"/>
        <pt x="173" y="0" on="1"/>
      </contour>
    </TTGlyph>
    <TTGlyph name="M" xMin="75" yMin="0" xMax="625" yMax="800">
      <contour>
        <pt x="75" y="800" on="1"/>
        <pt x="255" y="800" on="1"/>
        <pt x="348" y="335" on="1"/>
        <pt x="358" y="335" on="1"/>
        <pt x="451" y="800" on="1"/>
        <pt x="625" y="800" on="1"/>
        <pt x="625" y="0" on="1"/>
        <pt x="521" y="0" on="1"/>
        <pt x="521" y="503" on="1"/>
        <pt x="528" y="718" on="1"/>
        <pt x="519" y="718" on="1"/>
        <pt x="426" y="272" on="1"/>
        <pt x="274" y="272" on="1"/>
        <pt x="181" y="718" on="1"/>
        <pt x="172" y="718" on="1"/>
        <pt x="179" y="503" on="1"/>
        <pt x="179" y="0" on="1"/>
        <pt x="75" y="0" on="1"/>
      </contour>
    </TTGlyph>
    <TTGlyph name="N" xMin="96" yMin="0" xMax="604" yMax="800">
      <contour>
        <pt x="96" y="800" on="1"/>
        <pt x="291" y="800" on="1"/>
        <pt x="492" y="73" on="1"/>
        <pt x="502" y="73" on="1"/>
        <pt x="496" y="288" on="1"/>
        <pt x="496" y="800" on="1"/>
        <pt x="604" y="800" on="1"/>
        <pt x="604" y="0" on="1"/>
        <pt x="409" y="0" on="1"/>
        <pt x="208" y="727" on="1"/>
        <pt x="198" y="727" on="1"/>
        <pt x="204" y="512" on="1"/>
        <pt x="204" y="0" on="1"/>
        <pt x="96" y="0" on="1"/>
      </contour>
    </TTGlyph>
    <TTGlyph name="O" xMin="61" yMin="-16" xMax="639" yMax="816">
      <contour>
        <pt x="61" y="-16" on="0"/>
        <pt x="61" y="400" on="1"/>
        <pt x="61" y="816" on="0"/>
        <pt x="350" y="816" on="1"/>
        <pt x="639" y="816" on="0"/>
        <pt x="639" y="400" on="1"/>
        <pt x="639" y="-16" on="0"/>
        <pt x="350" y="-16" on="1"/>
      </contour>
      <contour>
        <pt x="169" y="239" on="0"/>
        <pt x="257" y="86" on="0"/>
        <pt x="350" y="86" on="1"/>
        <pt x="443" y="86" on="0"/>
        <pt x="531" y="239" on="0"/>
        <pt x="531" y="400" on="1"/>
        <pt x="531" y="561" on="0"/>
        <pt x="443" y="714" on="0"/>
        <pt x="350" y="714" on="1"/>
        <pt x="257" y="714" on="0"/>
        <pt x="169" y="561" on="0"/>
        <pt x="169" y="400" on="1"/>
      </contour>
    </TTGlyph>
    <TTGlyph name="P" xMin="133" yMin="0" xMax="652" yMax="800">
      <contour>
        <pt x="133" y="800" on="1"/>
        <pt x="403" y="800" on="1"/>
        <pt x="519" y="800" on="0"/>
        <pt x="652" y="675" on="0"/>
        <pt x="652" y="565" on="1"/>
        <pt x="652" y="457" on="0"/>
        <pt x="519" y="333" on="0"/>
        <pt x="403" y="333" on="1"/>
        <pt x="241" y="333" on="1"/>
        <pt x="241" y="0" on="1"/>
        <pt x="133" y="0" on="1"/>
      </contour>
      <contour>
        <pt x="407" y="433" on="1"/>
        <pt x="471" y="433" on="0"/>
        <pt x="544" y="503" on="0"/>
        <pt x="544" y="564" on="1"/>
        <pt x="544" y="625" on="0"/>
        <pt x="471" y="696" on="0"/>
        <pt x="407" y="696" on="1"/>
        <pt x="241" y="696" on="1"/>
        <pt x="241" y="433" on="1"/>
      </contour>
    </TTGlyph>
    <TTGlyph name="Q" xMin="61" yMin="-216" xMax="639" yMax="816">
      <contour>
        <pt x="443" y="86" on="0"/>
        <pt x="531" y="239" on="0"/>
        <pt x="531" y="400" on="1"/>
        <pt x="531" y="561" on="0"/>
        <pt x="443" y="714" on="0"/>
        <pt x="350" y="714" on="1"/>
        <pt x="257" y="714" on="0"/>
        <pt x="169" y="561" on="0"/>
        <pt x="169" y="400" on="1"/>
        <pt x="169" y="239" on="0"/>
        <pt x="257" y="86" on="0"/>
        <pt x="350" y="86" on="1"/>
      </contour>
      <contour>
        <pt x="61" y="816" on="0"/>
        <pt x="350" y="816" on="1"/>
        <pt x="639" y="816" on="0"/>
        <pt x="639" y="400" on="1"/>
        <pt x="639" y="1" on="0"/>
        <pt x="374" y="-15" on="1"/>
        <pt x="606" y="-113" on="1"/>
        <pt x="606" y="-216" on="1"/>
        <pt x="331" y="-99" on="1"/>
        <pt x="331" y="-16" on="1"/>
        <pt x="61" y="-3" on="0"/>
        <pt x="61" y="400" on="1"/>
      </contour>
    </TTGlyph>
    <TTGlyph name="R" xMin="118" yMin="0" xMax="657" yMax="800">
      <contour>
        <pt x="118" y="800" on="1"/>
        <pt x="384" y="800" on="1"/>
        <pt x="502" y="800" on="0"/>
        <pt x="638" y="677" on="0"/>
        <pt x="638" y="570" on="1"/>
        <pt x="638" y="480" on="0"/>
        <pt x="535" y="364" on="0"/>
        <pt x="442" y="350" on="1"/>
        <pt x="657" y="0" on="1"/>
        <pt x="531" y="0" on="1"/>
        <pt x="327" y="346" on="1"/>
        <pt x="226" y="346" on="1"/>
        <pt x="226" y="0" on="1"/>
        <pt x="118" y="0" on="1"/>
      </contour>
      <contour>
        <pt x="387" y="443" on="1"/>
        <pt x="455" y="443" on="0"/>
        <pt x="530" y="509" on="0"/>
        <pt x="530" y="570" on="1"/>
        <pt x="530" y="630" on="0"/>
        <pt x="455" y="696" on="0"/>
        <pt x="387" y="696" on="1"/>
        <pt x="226" y="696" on="1"/>
        <pt x="226" y="443" on="1"/>
      </contour>
    </TTGlyph>
    <TTGlyph name="S" xMin="88" yMin="-16" xMax="636" yMax="816">
      <contour>
        <pt x="213" y="88" on="0"/>
        <pt x="359" y="88" on="1"/>
        <pt x="430" y="88" on="0"/>
        <pt x="508" y="159" on="0"/>
        <pt x="508" y="223" on="1"/>
        <pt x="508" y="274" on="0"/>
        <pt x="452" y="331" on="0"/>
        <pt x="393" y="339" on="1"/>
        <pt x="310" y="350" on="1"/>
        <pt x="203" y="364" on="0"/>
        <pt x="98" y="476" on="0"/>
        <pt x="98" y="575" on="1"/>
        <pt x="98" y="648" on="0"/>
        <pt x="162" y="757" on="0"/>
        <pt x="282" y="816" on="0"/>
        <pt x="362" y="816" on="1"/>
        <pt x="484" y="816" on="0"/>
        <pt x="626" y="691" on="0"/>
        <pt x="636" y="576" on="1"/>
        <pt x="528" y="576" on="1"/>
        <pt x="513" y="712" on="0"/>
        <pt x="362" y="712" on="1"/>
        <pt x="288" y="712" on="0"/>
        <pt x="206" y="640" on="0"/>
        <pt x="206" y="575" on="1"/>
        <pt x="206" y="524" on="0"/>
        <pt x="262" y="467" on="0"/>
        <pt x="320" y="459" on="1"/>
        <pt x="403" y="448" on="1"/>
        <pt x="510" y="434" on="0"/>
        <pt x="616" y="322" on="0"/>
        <pt x="616" y="223" on="1"/>
        <pt x="616" y="150" on="0"/>
        <pt x="553" y="42" on="0"/>
        <pt x="437" y="-16" on="0"/>
        <pt x="359" y="-16" on="1"/>
        <pt x="240" y="-16" on="0"/>
        <pt x="100" y="97" on="0"/>
        <pt x="88" y="204" on="1"/>
        <pt x="198" y="204" on="1"/>
      </contour>
    </TTGlyph>
    <TTGlyph name="T" xMin="76" yMin="0" xMax="624" yMax="800">
      <contour>
        <pt x="296" y="696" on="1"/>
        <pt x="76" y="696" on="1"/>
        <pt x="76" y="800" on="1"/>
        <pt x="624" y="800" on="1"/>
        <pt x="624" y="696" on="1"/>
        <pt x="404" y="696" on="1"/>
        <pt x="404" y="0" on="1"/>
        <pt x="296" y="0" on="1"/>
      </contour>
    </TTGlyph>
    <TTGlyph name="U" xMin="88" yMin="-16" xMax="612" yMax="800">
      <contour>
        <pt x="195" y="800" on="1"/>
        <pt x="195" y="261" on="1"/>
        <pt x="195" y="178" on="0"/>
        <pt x="276" y="88" on="0"/>
        <pt x="350" y="88" on="1"/>
        <pt x="424" y="88" on="0"/>
        <pt x="505" y="178" on="0"/>
        <pt x="505" y="261" on="1"/>
        <pt x="505" y="800" on="1"/>
        <pt x="612" y="800" on="1"/>
        <pt x="612" y="261" on="1"/>
        <pt x="612" y="131" on="0"/>
        <pt x="474" y="-16" on="0"/>
        <pt x="350" y="-16" on="1"/>
        <pt x="226" y="-16" on="0"/>
        <pt x="88" y="131" on="0"/>
        <pt x="88" y="261" on="1"/>
        <pt x="88" y="800" on="1"/>
      </contour>
    </TTGlyph>
    <TTGlyph name="V" xMin="55" yMin="0" xMax="645" yMax="800">
      <contour>
        <pt x="353" y="70" on="1"/>
        <pt x="537" y="800" on="1"/>
        <pt x="645" y="800" on="1"/>
        <pt x="438" y="0" on="1"/>
        <pt x="262" y="0" on="1"/>
        <pt x="55" y="800" on="1"/>
        <pt x="169" y="800" on="1"/>
      </contour>
    </TTGlyph>
    <TTGlyph name="W" xMin="25" yMin="0" xMax="675" yMax="800">
      <contour>
        <pt x="212" y="129" on="1"/>
        <pt x="279" y="599" on="1"/>
        <pt x="429" y="599" on="1"/>
        <pt x="493" y="135" on="1"/>
        <pt x="564" y="800" on="1"/>
        <pt x="675" y="800" on="1"/>
        <pt x="573" y="0" on="1"/>
        <pt x="420" y="0" on="1"/>
        <pt x="351" y="488" on="1"/>
        <pt x="280" y="0" on="1"/>
        <pt x="127" y="0" on="1"/>
        <pt x="25" y="800" on="1"/>
        <pt x="141" y="800" on="1"/>
      </contour>
    </TTGlyph>
    <TTGlyph name="X" xMin="54" yMin="0" xMax="646" yMax="800">
      <contour>
        <pt x="350" y="442" on="1"/>
        <pt x="526" y="800" on="1"/>
        <pt x="646" y="800" on="1"/>
        <pt x="439" y="386" on="1"/>
        <pt x="631" y="0" on="1"/>
        <pt x="505" y="0" on="1"/>
        <pt x="350" y="329" on="1"/>
        <pt x="191" y="0" on="1"/>
        <pt x="69" y="0" on="1"/>
        <pt x="262" y="386" on="1"/>
        <pt x="54" y="800" on="1"/>
        <pt x="179" y="800" on="1"/>
      </contour>
    </TTGlyph>
    <TTGlyph name="Y" xMin="44" yMin="0" xMax="656" yMax="800">
      <contour>
        <pt x="351" y="453" on="1"/>
        <pt x="536" y="800" on="1"/>
        <pt x="656" y="800" on="1"/>
        <pt x="404" y="344" on="1"/>
        <pt x="404" y="0" on="1"/>
        <pt x="296" y="0" on="1"/>
        <pt x="296" y="344" on="1"/>
        <pt x="44" y="800" on="1"/>
        <pt x="166" y="800" on="1"/>
      </contour>
    </TTGlyph>
    <TTGlyph name="Z" xMin="105" yMin="0" xMax="595" yMax="800">
      <contour>
        <pt x="105" y="184" on="1"/>
        <pt x="529" y="696" on="1"/>
        <pt x="105" y="696" on="1"/>
        <pt x="105" y="800" on="1"/>
        <pt x="595" y="800" on="1"/>
        <pt x="595" y="616" on="1"/>
        <pt x="171" y="104" on="1"/>
        <pt x="595" y="104" on="1"/>
        <pt x="595" y="0" on="1"/>
        <pt x="105" y="0" on="1"/>
      </contour>
    </TTGlyph>
    <TTGlyph name="_part.multiply" xMin="115" yMin="115" xMax="585" yMax="585">
      <contour>
        <pt x="115" y="523" on="1"/>
        <pt x="177" y="585" on="1"/>
        <pt x="585" y="177" on="1"/>
        <pt x="523" y="115" on="1"/>
      </contour>
    </TTGlyph>
    <TTGlyph name="a" xMin="72" yMin="-16" xMax="572" yMax="615">
      <contour>
        <pt x="83" y="496" on="0"/>
        <pt x="225" y="615" on="0"/>
        <pt x="338" y="615" on="1"/>
        <pt x="450" y="615" on="0"/>
        <pt x="572" y="508" on="0"/>
        <pt x="572" y="410" on="1"/>
        <pt x="572" y="0" on="1"/>
        <pt x="468" y="0" on="1"/>
        <pt x="468" y="71" on="1"/>
        <pt x="439" y="71" on="1"/>
        <pt x="422" y="30" on="0"/>
        <pt x="342" y="-16" on="0"/>
        <pt x="285" y="-16" on="1"/>
        <pt x="202" y="-16" on="0"/>
        <pt x="104" y="77" on="0"/>
        <pt x="104" y="156" on="1"/>
        <pt x="104" y="230" on="0"/>
        <pt x="197" y="326" on="0"/>
        <pt x="285" y="341" on="1"/>
        <pt x="468" y="371" on="1"/>
        <pt x="468" y="391" on="1"/>
        <pt x="468" y="453" on="0"/>
        <pt x="402" y="517" on="0"/>
        <pt x="338" y="517" on="1"/>
        <pt x="270" y="517" on="0"/>
        <pt x="187" y="452" on="0"/>
        <pt x="179" y="393" on="1"/>
        <pt x="72" y="393" on="1"/>
      </contour>
      <contour>
        <pt x="211" y="121" on="0"/>
        <pt x="262" y="79" on="0"/>
        <pt x="310" y="79" on="1"/>
        <pt x="354" y="79" on="0"/>
        <pt x="426" y="123" on="0"/>
        <pt x="468" y="199" on="0"/>
        <pt x="468" y="245" on="1"/>
        <pt x="468" y="276" on="1"/>
        <pt x="302" y="249" on="1"/>
        <pt x="258" y="242" on="0"/>
        <pt x="211" y="197" on="0"/>
        <pt x="211" y="160" on="1"/>
      </contour>
    </TTGlyph>
    <TTGlyph name="ampersand" xMin="86" yMin="-23" xMax="614" yMax="816">
      <contour>
        <pt x="86" y="256" on="0"/>
        <pt x="127" y="346" on="0"/>
        <pt x="188" y="411" on="0"/>
        <pt x="234" y="448" on="1"/>
        <pt x="191" y="502" on="0"/>
        <pt x="151" y="593" on="0"/>
        <pt x="151" y="637" on="1"/>
        <pt x="151" y="720" on="0"/>
        <pt x="240" y="816" on="0"/>
        <pt x="317" y="816" on="1"/>
        <pt x="393" y="816" on="0"/>
        <pt x="482" y="721" on="0"/>
        <pt x="482" y="639" on="1"/>
        <pt x="482" y="575" on="0"/>
        <pt x="423" y="480" on="0"/>
        <pt x="370" y="434" on="1"/>
        <pt x="480" y="296" on="1"/>
        <pt x="490" y="351" on="0"/>
        <pt x="493" y="403" on="1"/>
        <pt x="597" y="403" on="1"/>
        <pt x="587" y="289" on="0"/>
        <pt x="557" y="200" on="1"/>
        <pt x="614" y="129" on="1"/>
        <pt x="614" y="-23" on="1"/>
        <pt x="511" y="104" on="1"/>
        <pt x="434" y="-16" on="0"/>
        <pt x="298" y="-16" on="1"/>
        <pt x="235" y="-16" on="0"/>
        <pt x="139" y="37" on="0"/>
        <pt x="86" y="135" on="0"/>
        <pt x="86" y="198" on="1"/>
      </contour>
      <contour>
        <pt x="196" y="151" on="0"/>
        <pt x="254" y="88" on="0"/>
        <pt x="301" y="88" on="1"/>
        <pt x="395" y="88" on="0"/>
        <pt x="445" y="187" on="1"/>
        <pt x="295" y="372" on="1"/>
        <pt x="247" y="331" on="0"/>
        <pt x="196" y="252" on="0"/>
        <pt x="196" y="201" on="1"/>
      </contour>
      <contour>
        <pt x="258" y="602" on="0"/>
        <pt x="278" y="548" on="0"/>
        <pt x="301" y="520" on="1"/>
        <pt x="309" y="510" on="1"/>
        <pt x="341" y="539" on="0"/>
        <pt x="375" y="600" on="0"/>
        <pt x="375" y="636" on="1"/>
        <pt x="375" y="671" on="0"/>
        <pt x="344" y="712" on="0"/>
        <pt x="317" y="712" on="1"/>
        <pt x="289" y="712" on="0"/>
        <pt x="258" y="670" on="0"/>
        <pt x="258" y="634" on="1"/>
      </contour>
    </TTGlyph>
    <TTGlyph name="approxequal" xMin="80" yMin="116" xMax="620" yMax="584">
      <component glyphName="asciitilde" x="0" y="125" flags="0x4"/>
      <component glyphName="asciitilde" x="0" y="-125" flags="0x4"/>
    </TTGlyph>
    <TTGlyph name="approxequal.case" xMin="80" yMin="166" xMax="620" yMax="634">
      <component glyphName="approxequal" x="0" y="50" flags="0x4"/>
    </TTGlyph>
    <TTGlyph name="asciicircum" xMin="120" yMin="515" xMax="580" yMax="816">
      <contour>
        <pt x="286" y="816" on="1"/>
        <pt x="414" y="816" on="1"/>
        <pt x="580" y="515" on="1"/>
        <pt x="478" y="515" on="1"/>
        <pt x="350" y="754" on="1"/>
        <pt x="222" y="515" on="1"/>
        <pt x="120" y="515" on="1"/>
      </contour>
    </TTGlyph>
    <TTGlyph name="asciitilde" xMin="80" yMin="241" xMax="620" yMax="459">
      <contour>
        <pt x="423" y="241" on="0"/>
        <pt x="358" y="280" on="0"/>
        <pt x="318" y="316" on="1"/>
        <pt x="291" y="342" on="0"/>
        <pt x="252" y="368" on="0"/>
        <pt x="229" y="368" on="1"/>
        <pt x="204" y="368" on="0"/>
        <pt x="173" y="328" on="0"/>
        <pt x="168" y="291" on="1"/>
        <pt x="80" y="291" on="1"/>
        <pt x="89" y="371" on="0"/>
        <pt x="168" y="459" on="0"/>
        <pt x="230" y="459" on="1"/>
        <pt x="277" y="459" on="0"/>
        <pt x="342" y="420" on="0"/>
        <pt x="382" y="384" on="1"/>
        <pt x="409" y="358" on="0"/>
        <pt x="448" y="332" on="0"/>
        <pt x="471" y="332" on="1"/>
        <pt x="496" y="332" on="0"/>
        <pt x="527" y="372" on="0"/>
        <pt x="532" y="409" on="1"/>
        <pt x="620" y="409" on="1"/>
        <pt x="611" y="329" on="0"/>
        <pt x="532" y="241" on="0"/>
        <pt x="470" y="241" on="1"/>
      </contour>
    </TTGlyph>
    <TTGlyph name="asciitilde.case" xMin="80" yMin="291" xMax="620" yMax="509">
      <component glyphName="asciitilde" x="0" y="50" flags="0x4"/>
    </TTGlyph>
    <TTGlyph name="asterisk" xMin="103" yMin="346" xMax="597" yMax="815">
      <contour>
        <pt x="406" y="815" on="1"/>
        <pt x="390" y="630" on="1"/>
        <pt x="562" y="702" on="1"/>
        <pt x="597" y="596" on="1"/>
        <pt x="415" y="553" on="1"/>
        <pt x="537" y="412" on="1"/>
        <pt x="446" y="346" on="1"/>
        <pt x="350" y="506" on="1"/>
        <pt x="254" y="346" on="1"/>
        <pt x="163" y="412" on="1"/>
        <pt x="285" y="553" on="1"/>
        <pt x="103" y="596" on="1"/>
        <pt x="138" y="702" on="1"/>
        <pt x="310" y="630" on="1"/>
        <pt x="294" y="815" on="1"/>
      </contour>
    </TTGlyph>
    <TTGlyph name="at" xMin="63" yMin="-133" xMax="623" yMax="816">
      <contour>
        <pt x="63" y="-133" on="0"/>
        <pt x="63" y="340" on="1"/>
        <pt x="63" y="816" on="0"/>
        <pt x="374" y="816" on="1"/>
        <pt x="623" y="816" on="0"/>
        <pt x="623" y="517" on="1"/>
        <pt x="623" y="111" on="1"/>
        <pt x="549" y="111" on="1"/>
        <pt x="549" y="167" on="1"/>
        <pt x="520" y="167" on="1"/>
        <pt x="502" y="95" on="0"/>
        <pt x="416" y="95" on="1"/>
        <pt x="340" y="95" on="0"/>
        <pt x="263" y="218" on="0"/>
        <pt x="263" y="340" on="1"/>
        <pt x="263" y="462" on="0"/>
        <pt x="340" y="585" on="0"/>
        <pt x="416" y="585" on="1"/>
        <pt x="493" y="585" on="0"/>
        <pt x="511" y="513" on="1"/>
        <pt x="540" y="513" on="1"/>
        <pt x="540" y="517" on="1"/>
        <pt x="540" y="734" on="0"/>
        <pt x="374" y="734" on="1"/>
        <pt x="148" y="734" on="0"/>
        <pt x="148" y="340" on="1"/>
        <pt x="148" y="-54" on="0"/>
        <pt x="376" y="-54" on="1"/>
        <pt x="467" y="-54" on="0"/>
        <pt x="520" y="-20" on="1"/>
        <pt x="520" y="-97" on="1"/>
        <pt x="469" y="-133" on="0"/>
        <pt x="376" y="-133" on="1"/>
      </contour>
      <contour>
        <pt x="349" y="179" on="0"/>
        <pt x="446" y="179" on="1"/>
        <pt x="544" y="179" on="0"/>
        <pt x="544" y="340" on="1"/>
        <pt x="544" y="501" on="0"/>
        <pt x="446" y="501" on="1"/>
        <pt x="349" y="501" on="0"/>
        <pt x="349" y="340" on="1"/>
      </contour>
    </TTGlyph>
    <TTGlyph name="b" xMin="109" yMin="-16" xMax="634" yMax="848">
      <contour>
        <pt x="337" y="-16" on="0"/>
        <pt x="255" y="37" on="0"/>
        <pt x="242" y="85" on="1"/>
        <pt x="213" y="85" on="1"/>
        <pt x="213" y="0" on="1"/>
        <pt x="109" y="0" on="1"/>
        <pt x="109" y="848" on="1"/>
        <pt x="213" y="848" on="1"/>
        <pt x="213" y="514" on="1"/>
        <pt x="242" y="514" on="1"/>
        <pt x="255" y="562" on="0"/>
        <pt x="337" y="615" on="0"/>
        <pt x="399" y="615" on="1"/>
        <pt x="470" y="615" on="0"/>
        <pt x="577" y="538" on="0"/>
        <pt x="634" y="395" on="0"/>
        <pt x="634" y="299" on="1"/>
        <pt x="634" y="203" on="0"/>
        <pt x="577" y="61" on="0"/>
        <pt x="470" y="-16" on="0"/>
        <pt x="399" y="-16" on="1"/>
      </contour>
      <contour>
        <pt x="207" y="195" on="0"/>
        <pt x="291" y="80" on="0"/>
        <pt x="368" y="80" on="1"/>
        <pt x="445" y="80" on="0"/>
        <pt x="529" y="195" on="0"/>
        <pt x="529" y="299" on="1"/>
        <pt x="529" y="404" on="0"/>
        <pt x="445" y="519" on="0"/>
        <pt x="368" y="519" on="1"/>
        <pt x="291" y="519" on="0"/>
        <pt x="207" y="404" on="0"/>
        <pt x="207" y="299" on="1"/>
      </contour>
    </TTGlyph>
    <TTGlyph name="backslash" xMin="125" yMin="-170" xMax="575" yMax="848">
      <contour>
        <pt x="227" y="848" on="1"/>
        <pt x="575" y="-170" on="1"/>
        <pt x="473" y="-170" on="1"/>
        <pt x="125" y="848" on="1"/>
      </contour>
    </TTGlyph>
    <TTGlyph name="bar" xMin="305" yMin="-60" xMax="395" yMax="860">
      <contour>
        <pt x="395" y="-60" on="1"/>
        <pt x="305" y="-60" on="1"/>
        <pt x="305" y="860" on="1"/>
        <pt x="395" y="860" on="1"/>
      </contour>
    </TTGlyph>
    <TTGlyph name="braceleft" xMin="246" yMin="-155" xMax="540" yMax="915">
      <contour>
        <pt x="482" y="819" on="0"/>
        <pt x="415" y="764" on="0"/>
        <pt x="415" y="721" on="1"/>
        <pt x="415" y="689" on="0"/>
        <pt x="425" y="627" on="1"/>
        <pt x="435" y="563" on="0"/>
        <pt x="435" y="532" on="1"/>
        <pt x="435" y="466" on="0"/>
        <pt x="375" y="395" on="0"/>
        <pt x="313" y="387" on="1"/>
        <pt x="313" y="373" on="1"/>
        <pt x="375" y="365" on="0"/>
        <pt x="435" y="294" on="0"/>
        <pt x="435" y="228" on="1"/>
        <pt x="435" y="196" on="0"/>
        <pt x="425" y="134" on="1"/>
        <pt x="415" y="70" on="0"/>
        <pt x="415" y="39" on="1"/>
        <pt x="415" y="-4" on="0"/>
        <pt x="482" y="-59" on="0"/>
        <pt x="540" y="-64" on="1"/>
        <pt x="540" y="-155" on="1"/>
        <pt x="440" y="-147" on="0"/>
        <pt x="320" y="-37" on="0"/>
        <pt x="320" y="48" on="1"/>
        <pt x="320" y="72" on="0"/>
        <pt x="330" y="126" on="1"/>
        <pt x="340" y="178" on="0"/>
        <pt x="340" y="205" on="1"/>
        <pt x="340" y="268" on="0"/>
        <pt x="295" y="326" on="0"/>
        <pt x="246" y="325" on="1"/>
        <pt x="246" y="435" on="1"/>
        <pt x="295" y="434" on="0"/>
        <pt x="340" y="492" on="0"/>
        <pt x="340" y="555" on="1"/>
        <pt x="340" y="582" on="0"/>
        <pt x="330" y="634" on="1"/>
        <pt x="320" y="688" on="0"/>
        <pt x="320" y="712" on="1"/>
        <pt x="320" y="797" on="0"/>
        <pt x="440" y="907" on="0"/>
        <pt x="540" y="915" on="1"/>
        <pt x="540" y="824" on="1"/>
      </contour>
    </TTGlyph>
    <TTGlyph name="braceright" xMin="160" yMin="-155" xMax="454" yMax="915">
      <contour>
        <pt x="260" y="907" on="0"/>
        <pt x="380" y="797" on="0"/>
        <pt x="380" y="712" on="1"/>
        <pt x="380" y="688" on="0"/>
        <pt x="370" y="634" on="1"/>
        <pt x="360" y="582" on="0"/>
        <pt x="360" y="555" on="1"/>
        <pt x="360" y="492" on="0"/>
        <pt x="405" y="434" on="0"/>
        <pt x="454" y="435" on="1"/>
        <pt x="454" y="325" on="1"/>
        <pt x="405" y="326" on="0"/>
        <pt x="360" y="268" on="0"/>
        <pt x="360" y="205" on="1"/>
        <pt x="360" y="178" on="0"/>
        <pt x="370" y="126" on="1"/>
        <pt x="380" y="72" on="0"/>
        <pt x="380" y="48" on="1"/>
        <pt x="380" y="-37" on="0"/>
        <pt x="260" y="-147" on="0"/>
        <pt x="160" y="-155" on="1"/>
        <pt x="160" y="-64" on="1"/>
        <pt x="218" y="-59" on="0"/>
        <pt x="285" y="-4" on="0"/>
        <pt x="285" y="39" on="1"/>
        <pt x="285" y="70" on="0"/>
        <pt x="275" y="134" on="1"/>
        <pt x="265" y="196" on="0"/>
        <pt x="265" y="228" on="1"/>
        <pt x="265" y="294" on="0"/>
        <pt x="325" y="365" on="0"/>
        <pt x="387" y="373" on="1"/>
        <pt x="387" y="387" on="1"/>
        <pt x="325" y="395" on="0"/>
        <pt x="265" y="466" on="0"/>
        <pt x="265" y="532" on="1"/>
        <pt x="265" y="563" on="0"/>
        <pt x="275" y="627" on="1"/>
        <pt x="285" y="689" on="0"/>
        <pt x="285" y="721" on="1"/>
        <pt x="285" y="764" on="0"/>
        <pt x="218" y="819" on="0"/>
        <pt x="160" y="824" on="1"/>
        <pt x="160" y="915" on="1"/>
      </contour>
    </TTGlyph>
    <TTGlyph name="bracketleft" xMin="308" yMin="-145" xMax="540" yMax="905">
      <contour>
        <pt x="540" y="816" on="1"/>
        <pt x="401" y="816" on="1"/>
        <pt x="401" y="-56" on="1"/>
        <pt x="540" y="-56" on="1"/>
        <pt x="540" y="-145" on="1"/>
        <pt x="308" y="-145" on="1"/>
        <pt x="308" y="905" on="1"/>
        <pt x="540" y="905" on="1"/>
      </contour>
    </TTGlyph>
    <TTGlyph name="bracketright" xMin="160" yMin="-145" xMax="392" yMax="905">
      <contour>
        <pt x="392" y="905" on="1"/>
        <pt x="392" y="-145" on="1"/>
        <pt x="160" y="-145" on="1"/>
        <pt x="160" y="-56" on="1"/>
        <pt x="299" y="-56" on="1"/>
        <pt x="299" y="816" on="1"/>
        <pt x="160" y="816" on="1"/>
        <pt x="160" y="905" on="1"/>
      </contour>
    </TTGlyph>
    <TTGlyph name="bullet" xMin="163" yMin="163" xMax="537" yMax="537">
      <contour>
        <pt x="259" y="163" on="0"/>
        <pt x="163" y="259" on="0"/>
        <pt x="163" y="350" on="1"/>
        <pt x="163" y="441" on="0"/>
        <pt x="259" y="537" on="0"/>
        <pt x="350" y="537" on="1"/>
        <pt x="441" y="537" on="0"/>
        <pt x="537" y="441" on="0"/>
        <pt x="537" y="350" on="1"/>
        <pt x="537" y="259" on="0"/>
        <pt x="441" y="163" on="0"/>
        <pt x="350" y="163" on="1"/>
      </contour>
    </TTGlyph>
    <TTGlyph name="c" xMin="98" yMin="-16" xMax="624" yMax="615">
      <contour>
        <pt x="283" y="-16" on="0"/>
        <pt x="163" y="60" on="0"/>
        <pt x="98" y="201" on="0"/>
        <pt x="98" y="297" on="1"/>
        <pt x="98" y="394" on="0"/>
        <pt x="165" y="537" on="0"/>
        <pt x="289" y="615" on="0"/>
        <pt x="372" y="615" on="1"/>
        <pt x="442" y="615" on="0"/>
        <pt x="553" y="554" on="0"/>
        <pt x="619" y="442" on="0"/>
        <pt x="624" y="368" on="1"/>
        <pt x="524" y="368" on="1"/>
        <pt x="516" y="439" on="0"/>
        <pt x="434" y="517" on="0"/>
        <pt x="369" y="517" on="1"/>
        <pt x="289" y="517" on="0"/>
        <pt x="201" y="401" on="0"/>
        <pt x="201" y="297" on="1"/>
        <pt x="201" y="194" on="0"/>
        <pt x="287" y="82" on="0"/>
        <pt x="364" y="82" on="1"/>
        <pt x="425" y="82" on="0"/>
        <pt x="502" y="151" on="0"/>
        <pt x="510" y="213" on="1"/>
        <pt x="610" y="213" on="1"/>
        <pt x="601" y="108" on="0"/>
        <pt x="467" y="-16" on="0"/>
        <pt x="364" y="-16" on="1"/>
      </contour>
    </TTGlyph>
    <TTGlyph name="cent" xMin="98" yMin="-101" xMax="624" yMax="699">
      <contour>
        <pt x="325" y="-14" on="1"/>
        <pt x="219" y="0" on="0"/>
        <pt x="98" y="165" on="0"/>
        <pt x="98" y="297" on="1"/>
        <pt x="98" y="429" on="0"/>
        <pt x="219" y="596" on="0"/>
        <pt x="325" y="612" on="1"/>
        <pt x="325" y="699" on="1"/>
        <pt x="401" y="699" on="1"/>
        <pt x="401" y="614" on="1"/>
        <pt x="496" y="604" on="0"/>
        <pt x="617" y="472" on="0"/>
        <pt x="624" y="368" on="1"/>
        <pt x="524" y="368" on="1"/>
        <pt x="517" y="429" on="0"/>
        <pt x="453" y="505" on="0"/>
        <pt x="401" y="514" on="1"/>
        <pt x="401" y="86" on="1"/>
        <pt x="446" y="95" on="0"/>
        <pt x="503" y="161" on="0"/>
        <pt x="510" y="213" on="1"/>
        <pt x="610" y="213" on="1"/>
        <pt x="602" y="118" on="0"/>
        <pt x="489" y="-3" on="0"/>
        <pt x="401" y="-14" on="1"/>
        <pt x="401" y="-101" on="1"/>
        <pt x="325" y="-101" on="1"/>
      </contour>
      <contour>
        <pt x="201" y="208" on="0"/>
        <pt x="265" y="100" on="0"/>
        <pt x="325" y="86" on="1"/>
        <pt x="325" y="512" on="1"/>
        <pt x="265" y="497" on="0"/>
        <pt x="201" y="386" on="0"/>
        <pt x="201" y="297" on="1"/>
      </contour>
    </TTGlyph>
    <TTGlyph name="cent.bold" xMin="98" yMin="-101" xMax="624" yMax="699">
      <contour>
        <pt x="401" y="699" on="1"/>
        <pt x="401" y="614" on="1"/>
        <pt x="496" y="604" on="0"/>
        <pt x="617" y="472" on="0"/>
        <pt x="624" y="368" on="1"/>
        <pt x="524" y="368" on="1"/>
        <pt x="516" y="439" on="0"/>
        <pt x="434" y="517" on="0"/>
        <pt x="369" y="517" on="1"/>
        <pt x="289" y="517" on="0"/>
        <pt x="201" y="401" on="0"/>
        <pt x="201" y="297" on="1"/>
        <pt x="201" y="194" on="0"/>
        <pt x="287" y="82" on="0"/>
        <pt x="364" y="82" on="1"/>
        <pt x="425" y="82" on="0"/>
        <pt x="502" y="151" on="0"/>
        <pt x="510" y="213" on="1"/>
        <pt x="610" y="213" on="1"/>
        <pt x="602" y="118" on="0"/>
        <pt x="489" y="-3" on="0"/>
        <pt x="401" y="-14" on="1"/>
        <pt x="401" y="-101" on="1"/>
        <pt x="325" y="-101" on="1"/>
        <pt x="325" y="-14" on="1"/>
        <pt x="219" y="0" on="0"/>
        <pt x="98" y="165" on="0"/>
        <pt x="98" y="297" on="1"/>
        <pt x="98" y="429" on="0"/>
        <pt x="219" y="596" on="0"/>
        <pt x="325" y="612" on="1"/>
        <pt x="325" y="699" on="1"/>
      </contour>
    </TTGlyph>
    <TTGlyph name="colon" xMin="262" yMin="-8" xMax="438" yMax="607">
      <component glyphName="period" x="0" y="0" flags="0x0"/>
      <component glyphName="period" x="0" y="432" flags="0x4"/>
    </TTGlyph>
    <TTGlyph name="colon.case" xMin="262" yMin="93" xMax="438" yMax="708">
      <component glyphName="colon" x="0" y="101" flags="0x4"/>
    </TTGlyph>
    <TTGlyph name="comma" xMin="250" yMin="-179" xMax="448" yMax="175">
      <contour>
        <pt x="307" y="-8" on="0"/>
        <pt x="262" y="40" on="0"/>
        <pt x="262" y="84" on="1"/>
        <pt x="262" y="128" on="0"/>
        <pt x="307" y="175" on="0"/>
        <pt x="350" y="175" on="1"/>
        <pt x="400" y="175" on="0"/>
        <pt x="448" y="117" on="0"/>
        <pt x="448" y="57" on="1"/>
        <pt x="448" y="-17" on="0"/>
        <pt x="417" y="-133" on="0"/>
        <pt x="385" y="-179" on="1"/>
        <pt x="250" y="-179" on="1"/>
        <pt x="358" y="-101" on="0"/>
        <pt x="377" y="-5" on="1"/>
        <pt x="365" y="-8" on="0"/>
        <pt x="350" y="-8" on="1"/>
      </contour>
    </TTGlyph>
    <TTGlyph name="copyright" xMin="61" yMin="96" xMax="639" yMax="704">
      <contour>
        <pt x="269" y="96" on="0"/>
        <pt x="137" y="175" on="0"/>
        <pt x="61" y="314" on="0"/>
        <pt x="61" y="400" on="1"/>
        <pt x="61" y="486" on="0"/>
        <pt x="137" y="625" on="0"/>
        <pt x="269" y="704" on="0"/>
        <pt x="350" y="704" on="1"/>
        <pt x="431" y="704" on="0"/>
        <pt x="563" y="625" on="0"/>
        <pt x="639" y="486" on="0"/>
        <pt x="639" y="400" on="1"/>
        <pt x="639" y="314" on="0"/>
        <pt x="563" y="175" on="0"/>
        <pt x="431" y="96" on="0"/>
        <pt x="350" y="96" on="1"/>
      </contour>
      <contour>
        <pt x="124" y="329" on="0"/>
        <pt x="181" y="220" on="0"/>
        <pt x="284" y="159" on="0"/>
        <pt x="350" y="159" on="1"/>
        <pt x="416" y="159" on="0"/>
        <pt x="519" y="220" on="0"/>
        <pt x="576" y="329" on="0"/>
        <pt x="576" y="400" on="1"/>
        <pt x="576" y="471" on="0"/>
        <pt x="519" y="580" on="0"/>
        <pt x="416" y="641" on="0"/>
        <pt x="350" y="641" on="1"/>
        <pt x="284" y="641" on="0"/>
        <pt x="181" y="580" on="0"/>
        <pt x="124" y="471" on="0"/>
        <pt x="124" y="400" on="1"/>
      </contour>
      <contour>
        <pt x="210" y="472" on="0"/>
        <pt x="288" y="559" on="0"/>
        <pt x="353" y="559" on="1"/>
        <pt x="409" y="559" on="0"/>
        <pt x="485" y="488" on="0"/>
        <pt x="492" y="430" on="1"/>
        <pt x="427" y="430" on="1"/>
        <pt x="422" y="462" on="0"/>
        <pt x="383" y="498" on="0"/>
        <pt x="353" y="498" on="1"/>
        <pt x="315" y="498" on="0"/>
        <pt x="272" y="446" on="0"/>
        <pt x="272" y="400" on="1"/>
        <pt x="272" y="357" on="0"/>
        <pt x="316" y="305" on="0"/>
        <pt x="352" y="305" on="1"/>
        <pt x="378" y="305" on="0"/>
        <pt x="413" y="335" on="0"/>
        <pt x="416" y="361" on="1"/>
        <pt x="480" y="361" on="1"/>
        <pt x="476" y="309" on="0"/>
        <pt x="404" y="244" on="0"/>
        <pt x="352" y="244" on="1"/>
        <pt x="290" y="244" on="0"/>
        <pt x="210" y="332" on="0"/>
        <pt x="210" y="400" on="1"/>
      </contour>
    </TTGlyph>
    <TTGlyph name="currency" xMin="97" yMin="97" xMax="603" yMax="603">
      <contour>
        <pt x="285" y="140" on="0"/>
        <pt x="230" y="177" on="1"/>
        <pt x="151" y="97" on="1"/>
        <pt x="97" y="151" on="1"/>
        <pt x="177" y="230" on="1"/>
        <pt x="140" y="285" on="0"/>
        <pt x="140" y="350" on="1"/>
        <pt x="140" y="415" on="0"/>
        <pt x="177" y="470" on="1"/>
        <pt x="97" y="549" on="1"/>
        <pt x="151" y="603" on="1"/>
        <pt x="230" y="523" on="1"/>
        <pt x="285" y="560" on="0"/>
        <pt x="350" y="560" on="1"/>
        <pt x="415" y="560" on="0"/>
        <pt x="470" y="523" on="1"/>
        <pt x="549" y="603" on="1"/>
        <pt x="603" y="549" on="1"/>
        <pt x="523" y="470" on="1"/>
        <pt x="560" y="415" on="0"/>
        <pt x="560" y="350" on="1"/>
        <pt x="560" y="285" on="0"/>
        <pt x="523" y="230" on="1"/>
        <pt x="603" y="151" on="1"/>
        <pt x="549" y="97" on="1"/>
        <pt x="470" y="177" on="1"/>
        <pt x="415" y="140" on="0"/>
        <pt x="350" y="140" on="1"/>
      </contour>
      <contour>
        <pt x="225" y="298" on="0"/>
        <pt x="298" y="225" on="0"/>
        <pt x="350" y="225" on="1"/>
        <pt x="402" y="225" on="0"/>
        <pt x="475" y="298" on="0"/>
        <pt x="475" y="350" on="1"/>
        <pt x="475" y="402" on="0"/>
        <pt x="402" y="475" on="0"/>
        <pt x="350" y="475" on="1"/>
        <pt x="298" y="475" on="0"/>
        <pt x="225" y="402" on="0"/>
        <pt x="225" y="350" on="1"/>
      </contour>
    </TTGlyph>
    <TTGlyph name="d" xMin="66" yMin="-16" xMax="591" yMax="848">
      <contour>
        <pt x="230" y="-16" on="0"/>
        <pt x="123" y="61" on="0"/>
        <pt x="66" y="203" on="0"/>
        <pt x="66" y="299" on="1"/>
        <pt x="66" y="395" on="0"/>
        <pt x="123" y="538" on="0"/>
        <pt x="230" y="615" on="0"/>
        <pt x="301" y="615" on="1"/>
        <pt x="363" y="615" on="0"/>
        <pt x="445" y="562" on="0"/>
        <pt x="458" y="514" on="1"/>
        <pt x="487" y="514" on="1"/>
        <pt x="487" y="848" on="1"/>
        <pt x="591" y="848" on="1"/>
        <pt x="591" y="0" on="1"/>
        <pt x="487" y="0" on="1"/>
        <pt x="487" y="85" on="1"/>
        <pt x="458" y="85" on="1"/>
        <pt x="445" y="37" on="0"/>
        <pt x="363" y="-16" on="0"/>
        <pt x="301" y="-16" on="1"/>
      </contour>
      <contour>
        <pt x="171" y="195" on="0"/>
        <pt x="255" y="80" on="0"/>
        <pt x="332" y="80" on="1"/>
        <pt x="409" y="80" on="0"/>
        <pt x="493" y="195" on="0"/>
        <pt x="493" y="299" on="1"/>
        <pt x="493" y="404" on="0"/>
        <pt x="409" y="519" on="0"/>
        <pt x="332" y="519" on="1"/>
        <pt x="255" y="519" on="0"/>
        <pt x="171" y="404" on="0"/>
        <pt x="171" y="299" on="1"/>
      </contour>
    </TTGlyph>
    <TTGlyph name="divide" xMin="90" yMin="73" xMax="610" yMax="627">
      <component glyphName="minus" x="0" y="0" flags="0x0"/>
      <component glyphName="uni0307" x="266" y="-220" flags="0x4"/>
      <component glyphName="uni0307" x="266" y="-619" flags="0x4"/>
    </TTGlyph>
    <TTGlyph name="divide.case" xMin="90" yMin="123" xMax="610" yMax="677">
      <component glyphName="divide" x="0" y="50" flags="0x4"/>
    </TTGlyph>
    <TTGlyph name="dollar" xMin="88" yMin="-100" xMax="636" yMax="900">
      <contour>
        <pt x="212" y="103" on="0"/>
        <pt x="322" y="90" on="1"/>
        <pt x="322" y="348" on="1"/>
        <pt x="310" y="350" on="1"/>
        <pt x="203" y="364" on="0"/>
        <pt x="98" y="476" on="0"/>
        <pt x="98" y="575" on="1"/>
        <pt x="98" y="676" on="0"/>
        <pt x="218" y="803" on="0"/>
        <pt x="322" y="814" on="1"/>
        <pt x="322" y="900" on="1"/>
        <pt x="398" y="900" on="1"/>
        <pt x="398" y="815" on="1"/>
        <pt x="504" y="805" on="0"/>
        <pt x="627" y="682" on="0"/>
        <pt x="636" y="576" on="1"/>
        <pt x="528" y="576" on="1"/>
        <pt x="514" y="695" on="0"/>
        <pt x="398" y="710" on="1"/>
        <pt x="398" y="449" on="1"/>
        <pt x="403" y="448" on="1"/>
        <pt x="510" y="434" on="0"/>
        <pt x="616" y="322" on="0"/>
        <pt x="616" y="223" on="1"/>
        <pt x="616" y="123" on="0"/>
        <pt x="499" y="-3" on="0"/>
        <pt x="398" y="-14" on="1"/>
        <pt x="398" y="-100" on="1"/>
        <pt x="322" y="-100" on="1"/>
        <pt x="322" y="-15" on="1"/>
        <pt x="219" y="-6" on="0"/>
        <pt x="99" y="106" on="0"/>
        <pt x="88" y="204" on="1"/>
        <pt x="198" y="204" on="1"/>
      </contour>
      <contour>
        <pt x="206" y="524" on="0"/>
        <pt x="262" y="467" on="0"/>
        <pt x="320" y="459" on="1"/>
        <pt x="322" y="459" on="1"/>
        <pt x="322" y="709" on="1"/>
        <pt x="266" y="700" on="0"/>
        <pt x="206" y="630" on="0"/>
        <pt x="206" y="575" on="1"/>
      </contour>
      <contour>
        <pt x="451" y="100" on="0"/>
        <pt x="508" y="168" on="0"/>
        <pt x="508" y="223" on="1"/>
        <pt x="508" y="273" on="0"/>
        <pt x="455" y="329" on="0"/>
        <pt x="398" y="338" on="1"/>
        <pt x="398" y="91" on="1"/>
      </contour>
    </TTGlyph>
    <TTGlyph name="dollar.bold" xMin="88" yMin="-100" xMax="636" yMax="900">
      <contour>
        <pt x="213" y="88" on="0"/>
        <pt x="359" y="88" on="1"/>
        <pt x="430" y="88" on="0"/>
        <pt x="508" y="159" on="0"/>
        <pt x="508" y="223" on="1"/>
        <pt x="508" y="274" on="0"/>
        <pt x="452" y="331" on="0"/>
        <pt x="393" y="339" on="1"/>
        <pt x="310" y="350" on="1"/>
        <pt x="203" y="364" on="0"/>
        <pt x="98" y="476" on="0"/>
        <pt x="98" y="575" on="1"/>
        <pt x="98" y="676" on="0"/>
        <pt x="218" y="803" on="0"/>
        <pt x="322" y="814" on="1"/>
        <pt x="322" y="900" on="1"/>
        <pt x="398" y="900" on="1"/>
        <pt x="398" y="815" on="1"/>
        <pt x="504" y="805" on="0"/>
        <pt x="627" y="682" on="0"/>
        <pt x="636" y="576" on="1"/>
        <pt x="528" y="576" on="1"/>
        <pt x="513" y="712" on="0"/>
        <pt x="362" y="712" on="1"/>
        <pt x="288" y="712" on="0"/>
        <pt x="206" y="640" on="0"/>
        <pt x="206" y="575" on="1"/>
        <pt x="206" y="524" on="0"/>
        <pt x="262" y="467" on="0"/>
        <pt x="320" y="459" on="1"/>
        <pt x="403" y="448" on="1"/>
        <pt x="510" y="434" on="0"/>
        <pt x="616" y="322" on="0"/>
        <pt x="616" y="223" on="1"/>
        <pt x="616" y="123" on="0"/>
        <pt x="499" y="-3" on="0"/>
        <pt x="398" y="-14" on="1"/>
        <pt x="398" y="-100" on="1"/>
        <pt x="322" y="-100" on="1"/>
        <pt x="322" y="-15" on="1"/>
        <pt x="219" y="-6" on="0"/>
        <pt x="99" y="106" on="0"/>
        <pt x="88" y="204" on="1"/>
        <pt x="198" y="204" on="1"/>
      </contour>
    </TTGlyph>
    <TTGlyph name="dotlessi" xMin="147" yMin="0" xMax="615" yMax="599">
      <contour>
        <pt x="433" y="599" on="1"/>
        <pt x="433" y="98" on="1"/>
        <pt x="615" y="98" on="1"/>
        <pt x="615" y="0" on="1"/>
        <pt x="147" y="0" on="1"/>
        <pt x="147" y="98" on="1"/>
        <pt x="329" y="98" on="1"/>
        <pt x="329" y="501" on="1"/>
        <pt x="147" y="501" on="1"/>
        <pt x="147" y="599" on="1"/>
      </contour>
    </TTGlyph>
    <TTGlyph name="e" xMin="98" yMin="-16" xMax="618" yMax="615">
      <contour>
        <pt x="98" y="399" on="0"/>
        <pt x="162" y="539" on="0"/>
        <pt x="282" y="615" on="0"/>
        <pt x="362" y="615" on="1"/>
        <pt x="476" y="615" on="0"/>
        <pt x="602" y="456" on="0"/>
        <pt x="602" y="311" on="1"/>
        <pt x="602" y="292" on="0"/>
        <pt x="600" y="266" on="1"/>
        <pt x="201" y="266" on="1"/>
        <pt x="208" y="175" on="0"/>
        <pt x="292" y="80" on="0"/>
        <pt x="365" y="80" on="1"/>
        <pt x="420" y="80" on="0"/>
        <pt x="497" y="133" on="0"/>
        <pt x="515" y="184" on="1"/>
        <pt x="618" y="184" on="1"/>
        <pt x="594" y="89" on="0"/>
        <pt x="461" y="-16" on="0"/>
        <pt x="365" y="-16" on="1"/>
        <pt x="238" y="-16" on="0"/>
        <pt x="98" y="152" on="0"/>
        <pt x="98" y="305" on="1"/>
      </contour>
      <contour>
        <pt x="504" y="359" on="1"/>
        <pt x="495" y="437" on="0"/>
        <pt x="423" y="519" on="0"/>
        <pt x="362" y="519" on="1"/>
        <pt x="296" y="519" on="0"/>
        <pt x="214" y="436" on="0"/>
        <pt x="203" y="359" on="1"/>
      </contour>
    </TTGlyph>
    <TTGlyph name="eight" xMin="76" yMin="-16" xMax="624" yMax="816">
      <contour>
        <pt x="427" y="450" on="0"/>
        <pt x="515" y="520" on="0"/>
        <pt x="515" y="581" on="1"/>
        <pt x="515" y="642" on="0"/>
        <pt x="427" y="712" on="0"/>
        <pt x="350" y="712" on="1"/>
        <pt x="273" y="712" on="0"/>
        <pt x="185" y="642" on="0"/>
        <pt x="185" y="581" on="1"/>
        <pt x="185" y="520" on="0"/>
        <pt x="273" y="450" on="0"/>
        <pt x="350" y="450" on="1"/>
      </contour>
      <contour>
        <pt x="76" y="282" on="0"/>
        <pt x="153" y="376" on="0"/>
        <pt x="221" y="385" on="1"/>
        <pt x="221" y="414" on="1"/>
        <pt x="153" y="422" on="0"/>
        <pt x="76" y="517" on="0"/>
        <pt x="76" y="591" on="1"/>
        <pt x="76" y="695" on="0"/>
        <pt x="223" y="816" on="0"/>
        <pt x="350" y="816" on="1"/>
        <pt x="477" y="816" on="0"/>
        <pt x="624" y="695" on="0"/>
        <pt x="624" y="591" on="1"/>
        <pt x="624" y="517" on="0"/>
        <pt x="547" y="422" on="0"/>
        <pt x="479" y="414" on="1"/>
        <pt x="479" y="385" on="1"/>
        <pt x="547" y="376" on="0"/>
        <pt x="624" y="282" on="0"/>
        <pt x="624" y="208" on="1"/>
        <pt x="624" y="104" on="0"/>
        <pt x="478" y="-16" on="0"/>
        <pt x="350" y="-16" on="1"/>
        <pt x="222" y="-16" on="0"/>
        <pt x="76" y="104" on="0"/>
        <pt x="76" y="208" on="1"/>
      </contour>
      <contour>
        <pt x="185" y="158" on="0"/>
        <pt x="274" y="88" on="0"/>
        <pt x="350" y="88" on="1"/>
        <pt x="426" y="88" on="0"/>
        <pt x="515" y="158" on="0"/>
        <pt x="515" y="218" on="1"/>
        <pt x="515" y="279" on="0"/>
        <pt x="427" y="348" on="0"/>
        <pt x="350" y="348" on="1"/>
        <pt x="273" y="348" on="0"/>
        <pt x="185" y="279" on="0"/>
        <pt x="185" y="218" on="1"/>
      </contour>
    </TTGlyph>
    <TTGlyph name="ellipsis" xMin="48" yMin="-8" xMax="651" yMax="175">
      <contour>
        <pt x="315" y="-8" on="0"/>
        <pt x="278" y="40" on="0"/>
        <pt x="278" y="84" on="1"/>
        <pt x="278" y="128" on="0"/>
        <pt x="315" y="175" on="0"/>
        <pt x="350" y="175" on="1"/>
        <pt x="385" y="175" on="0"/>
        <pt x="423" y="128" on="0"/>
        <pt x="423" y="84" on="1"/>
        <pt x="423" y="40" on="0"/>
        <pt x="385" y="-8" on="0"/>
        <pt x="350" y="-8" on="1"/>
      </contour>
      <contour>
        <pt x="48" y="128" on="0"/>
        <pt x="86" y="175" on="0"/>
        <pt x="121" y="175" on="1"/>
        <pt x="156" y="175" on="0"/>
        <pt x="194" y="128" on="0"/>
        <pt x="194" y="84" on="1"/>
        <pt x="194" y="40" on="0"/>
        <pt x="156" y="-8" on="0"/>
        <pt x="121" y="-8" on="1"/>
        <pt x="86" y="-8" on="0"/>
        <pt x="48" y="40" on="0"/>
        <pt x="48" y="84" on="1"/>
      </contour>
      <contour>
        <pt x="506" y="128" on="0"/>
        <pt x="544" y="175" on="0"/>
        <pt x="579" y="175" on="1"/>
        <pt x="614" y="175" on="0"/>
        <pt x="651" y="128" on="0"/>
        <pt x="651" y="84" on="1"/>
        <pt x="651" y="40" on="0"/>
        <pt x="614" y="-8" on="0"/>
        <pt x="579" y="-8" on="1"/>
        <pt x="544" y="-8" on="0"/>
        <pt x="506" y="40" on="0"/>
        <pt x="506" y="84" on="1"/>
      </contour>
    </TTGlyph>
    <TTGlyph name="emdash" xMin="42" yMin="303" xMax="658" yMax="397">
      <contour>
        <pt x="658" y="397" on="1"/>
        <pt x="658" y="303" on="1"/>
        <pt x="42" y="303" on="1"/>
        <pt x="42" y="397" on="1"/>
      </contour>
    </TTGlyph>
    <TTGlyph name="emdash.case" xMin="42" yMin="353" xMax="658" yMax="447">
      <component glyphName="emdash" x="0" y="50" flags="0x4"/>
    </TTGlyph>
    <TTGlyph name="endash" xMin="71" yMin="303" xMax="629" yMax="397">
      <contour>
        <pt x="629" y="397" on="1"/>
        <pt x="629" y="303" on="1"/>
        <pt x="71" y="303" on="1"/>
        <pt x="71" y="397" on="1"/>
      </contour>
    </TTGlyph>
    <TTGlyph name="endash.case" xMin="71" yMin="353" xMax="629" yMax="447">
      <component glyphName="endash" x="0" y="50" flags="0x4"/>
    </TTGlyph>
    <TTGlyph name="equal" xMin="90" yMin="166" xMax="610" yMax="534">
      <contour>
        <pt x="90" y="534" on="1"/>
        <pt x="610" y="534" on="1"/>
        <pt x="610" y="439" on="1"/>
        <pt x="90" y="439" on="1"/>
      </contour>
      <contour>
        <pt x="90" y="261" on="1"/>
        <pt x="610" y="261" on="1"/>
        <pt x="610" y="166" on="1"/>
        <pt x="90" y="166" on="1"/>
      </contour>
    </TTGlyph>
    <TTGlyph name="equal.case" xMin="90" yMin="216" xMax="610" yMax="584">
      <component glyphName="equal" x="0" y="50" flags="0x4"/>
    </TTGlyph>
    <TTGlyph name="exclam" xMin="266" yMin="-7" xMax="433" yMax="800">
      <contour>
        <pt x="404" y="800" on="1"/>
        <pt x="404" y="225" on="1"/>
        <pt x="296" y="225" on="1"/>
        <pt x="296" y="800" on="1"/>
      </contour>
      <contour>
        <pt x="266" y="108" on="0"/>
        <pt x="310" y="148" on="0"/>
        <pt x="350" y="148" on="1"/>
        <pt x="390" y="148" on="0"/>
        <pt x="433" y="108" on="0"/>
        <pt x="433" y="71" on="1"/>
        <pt x="433" y="34" on="0"/>
        <pt x="390" y="-7" on="0"/>
        <pt x="350" y="-7" on="1"/>
        <pt x="310" y="-7" on="0"/>
        <pt x="266" y="33" on="0"/>
        <pt x="266" y="71" on="1"/>
      </contour>
    </TTGlyph>
    <TTGlyph name="f" xMin="134" yMin="0" xMax="667" yMax="864">
      <contour>
        <pt x="268" y="0" on="1"/>
        <pt x="268" y="501" on="1"/>
        <pt x="134" y="501" on="1"/>
        <pt x="134" y="599" on="1"/>
        <pt x="268" y="599" on="1"/>
        <pt x="268" y="666" on="1"/>
        <pt x="268" y="760" on="0"/>
        <pt x="372" y="864" on="0"/>
        <pt x="466" y="864" on="1"/>
        <pt x="554" y="864" on="0"/>
        <pt x="659" y="773" on="0"/>
        <pt x="667" y="690" on="1"/>
        <pt x="562" y="690" on="1"/>
        <pt x="558" y="727" on="0"/>
        <pt x="510" y="766" on="0"/>
        <pt x="466" y="766" on="1"/>
        <pt x="420" y="766" on="0"/>
        <pt x="372" y="715" on="0"/>
        <pt x="372" y="666" on="1"/>
        <pt x="372" y="599" on="1"/>
        <pt x="600" y="599" on="1"/>
        <pt x="600" y="501" on="1"/>
        <pt x="372" y="501" on="1"/>
        <pt x="372" y="0" on="1"/>
      </contour>
    </TTGlyph>
    <TTGlyph name="five" xMin="88" yMin="-16" xMax="625" yMax="800">
      <contour>
        <pt x="610" y="800" on="1"/>
        <pt x="610" y="696" on="1"/>
        <pt x="227" y="696" on="1"/>
        <pt x="227" y="457" on="1"/>
        <pt x="256" y="457" on="1"/>
        <pt x="267" y="493" on="0"/>
        <pt x="340" y="533" on="0"/>
        <pt x="395" y="533" on="1"/>
        <pt x="504" y="533" on="0"/>
        <pt x="625" y="392" on="0"/>
        <pt x="625" y="264" on="1"/>
        <pt x="625" y="131" on="0"/>
        <pt x="486" y="-16" on="0"/>
        <pt x="360" y="-16" on="1"/>
        <pt x="244" y="-16" on="0"/>
        <pt x="100" y="118" on="0"/>
        <pt x="88" y="239" on="1"/>
        <pt x="204" y="239" on="1"/>
        <pt x="213" y="168" on="0"/>
        <pt x="295" y="88" on="0"/>
        <pt x="360" y="88" on="1"/>
        <pt x="434" y="88" on="0"/>
        <pt x="516" y="181" on="0"/>
        <pt x="516" y="264" on="1"/>
        <pt x="516" y="344" on="0"/>
        <pt x="434" y="433" on="0"/>
        <pt x="362" y="433" on="1"/>
        <pt x="311" y="433" on="0"/>
        <pt x="235" y="386" on="0"/>
        <pt x="217" y="345" on="1"/>
        <pt x="119" y="345" on="1"/>
        <pt x="119" y="800" on="1"/>
      </contour>
    </TTGlyph>
    <TTGlyph name="four" xMin="65" yMin="0" xMax="640" yMax="800">
      <contour>
        <pt x="521" y="337" on="1"/>
        <pt x="640" y="337" on="1"/>
        <pt x="640" y="233" on="1"/>
        <pt x="521" y="233" on="1"/>
        <pt x="521" y="0" on="1"/>
        <pt x="413" y="0" on="1"/>
        <pt x="413" y="233" on="1"/>
        <pt x="65" y="233" on="1"/>
        <pt x="65" y="387" on="1"/>
        <pt x="323" y="800" on="1"/>
        <pt x="521" y="800" on="1"/>
      </contour>
      <contour>
        <pt x="413" y="337" on="1"/>
        <pt x="413" y="751" on="1"/>
        <pt x="152" y="337" on="1"/>
      </contour>
    </TTGlyph>
    <TTGlyph name="g" xMin="79" yMin="-216" xMax="582" yMax="615">
      <contour>
        <pt x="582" y="-91" on="0"/>
        <pt x="448" y="-216" on="0"/>
        <pt x="332" y="-216" on="1"/>
        <pt x="224" y="-216" on="0"/>
        <pt x="88" y="-113" on="0"/>
        <pt x="79" y="-25" on="1"/>
        <pt x="191" y="-25" on="1"/>
        <pt x="198" y="-69" on="0"/>
        <pt x="272" y="-118" on="0"/>
        <pt x="332" y="-118" on="1"/>
        <pt x="401" y="-118" on="0"/>
        <pt x="478" y="-48" on="0"/>
        <pt x="478" y="16" on="1"/>
        <pt x="478" y="124" on="1"/>
        <pt x="449" y="124" on="1"/>
        <pt x="437" y="80" on="0"/>
        <pt x="362" y="32" on="0"/>
        <pt x="306" y="32" on="1"/>
        <pt x="238" y="32" on="0"/>
        <pt x="136" y="103" on="0"/>
        <pt x="81" y="234" on="0"/>
        <pt x="81" y="323" on="1"/>
        <pt x="81" y="412" on="0"/>
        <pt x="136" y="544" on="0"/>
        <pt x="238" y="615" on="0"/>
        <pt x="306" y="615" on="1"/>
        <pt x="362" y="615" on="0"/>
        <pt x="437" y="566" on="0"/>
        <pt x="449" y="522" on="1"/>
        <pt x="478" y="522" on="1"/>
        <pt x="478" y="599" on="1"/>
        <pt x="582" y="599" on="1"/>
        <pt x="582" y="16" on="1"/>
      </contour>
      <contour>
        <pt x="186" y="231" on="0"/>
        <pt x="265" y="128" on="0"/>
        <pt x="336" y="128" on="1"/>
        <pt x="407" y="128" on="0"/>
        <pt x="485" y="230" on="0"/>
        <pt x="485" y="323" on="1"/>
        <pt x="485" y="416" on="0"/>
        <pt x="407" y="519" on="0"/>
        <pt x="336" y="519" on="1"/>
        <pt x="265" y="519" on="0"/>
        <pt x="186" y="415" on="0"/>
        <pt x="186" y="323" on="1"/>
      </contour>
    </TTGlyph>
    <TTGlyph name="grave" xMin="192" yMin="577" xMax="508" yMax="848">
      <contour>
        <pt x="329" y="848" on="1"/>
        <pt x="508" y="577" on="1"/>
        <pt x="409" y="577" on="1"/>
        <pt x="192" y="848" on="1"/>
      </contour>
    </TTGlyph>
    <TTGlyph name="greater" xMin="116" yMin="37" xMax="584" yMax="663">
      <contour>
        <pt x="116" y="37" on="1"/>
        <pt x="116" y="145" on="1"/>
        <pt x="520" y="345" on="1"/>
        <pt x="520" y="355" on="1"/>
        <pt x="116" y="555" on="1"/>
        <pt x="116" y="663" on="1"/>
        <pt x="584" y="426" on="1"/>
        <pt x="584" y="274" on="1"/>
      </contour>
    </TTGlyph>
    <TTGlyph name="greater.case" xMin="116" yMin="87" xMax="584" yMax="713">
      <component glyphName="greater" x="0" y="50" flags="0x4"/>
    </TTGlyph>
    <TTGlyph name="guillemotleft" xMin="98" yMin="46" xMax="577" yMax="654">
      <contour>
        <pt x="98" y="275" on="1"/>
        <pt x="98" y="423" on="1"/>
        <pt x="363" y="654" on="1"/>
        <pt x="363" y="524" on="1"/>
        <pt x="157" y="351" on="1"/>
        <pt x="363" y="180" on="1"/>
        <pt x="363" y="46" on="1"/>
      </contour>
      <contour>
        <pt x="352" y="421" on="1"/>
        <pt x="577" y="592" on="1"/>
        <pt x="577" y="471" on="1"/>
        <pt x="411" y="351" on="1"/>
        <pt x="577" y="232" on="1"/>
        <pt x="577" y="108" on="1"/>
        <pt x="352" y="277" on="1"/>
      </contour>
    </TTGlyph>
    <TTGlyph name="guillemotright" xMin="123" yMin="46" xMax="602" yMax="654">
      <contour>
        <pt x="337" y="180" on="1"/>
        <pt x="543" y="351" on="1"/>
        <pt x="337" y="524" on="1"/>
        <pt x="337" y="654" on="1"/>
        <pt x="602" y="423" on="1"/>
        <pt x="602" y="275" on="1"/>
        <pt x="337" y="46" on="1"/>
      </contour>
      <contour>
        <pt x="123" y="232" on="1"/>
        <pt x="289" y="351" on="1"/>
        <pt x="123" y="471" on="1"/>
        <pt x="123" y="592" on="1"/>
        <pt x="348" y="421" on="1"/>
        <pt x="348" y="277" on="1"/>
        <pt x="123" y="108" on="1"/>
      </contour>
    </TTGlyph>
    <TTGlyph name="h" xMin="116" yMin="0" xMax="595" yMax="848">
      <contour>
        <pt x="220" y="848" on="1"/>
        <pt x="220" y="517" on="1"/>
        <pt x="249" y="517" on="1"/>
        <pt x="263" y="564" on="0"/>
        <pt x="340" y="615" on="0"/>
        <pt x="398" y="615" on="1"/>
        <pt x="488" y="615" on="0"/>
        <pt x="595" y="492" on="0"/>
        <pt x="595" y="388" on="1"/>
        <pt x="595" y="0" on="1"/>
        <pt x="491" y="0" on="1"/>
        <pt x="491" y="360" on="1"/>
        <pt x="491" y="437" on="0"/>
        <pt x="422" y="517" on="0"/>
        <pt x="356" y="517" on="1"/>
        <pt x="289" y="517" on="0"/>
        <pt x="220" y="437" on="0"/>
        <pt x="220" y="360" on="1"/>
        <pt x="220" y="0" on="1"/>
        <pt x="116" y="0" on="1"/>
        <pt x="116" y="848" on="1"/>
      </contour>
    </TTGlyph>
    <TTGlyph name="hyphen" xMin="90" yMin="303" xMax="610" yMax="397">
      <component glyphName="minus" x="0" y="0" flags="0x0"/>
    </TTGlyph>
    <TTGlyph name="hyphen.case" xMin="90" yMin="353" xMax="610" yMax="447">
      <component glyphName="minus.case" x="0" y="0" flags="0x0"/>
    </TTGlyph>
    <TTGlyph name="i" xMin="147" yMin="0" xMax="615" yMax="846">
      <component glyphName="dotlessi" x="0" y="0" flags="0x0"/>
      <component glyphName="uni0307" x="297" y="-1" flags="0x4"/>
    </TTGlyph>
    <TTGlyph name="j" xMin="100" yMin="-216" xMax="527" yMax="846">
      <component glyphName="uni0237" x="0" y="0" flags="0x0"/>
      <component glyphName="uni0307" x="363" y="-1" flags="0x4"/>
    </TTGlyph>
    <TTGlyph name="k" xMin="150" yMin="0" xMax="654" yMax="848">
      <contour>
        <pt x="254" y="848" on="1"/>
        <pt x="254" y="325" on="1"/>
        <pt x="524" y="599" on="1"/>
        <pt x="654" y="599" on="1"/>
        <pt x="353" y="297" on="1"/>
        <pt x="645" y="0" on="1"/>
        <pt x="508" y="0" on="1"/>
        <pt x="254" y="259" on="1"/>
        <pt x="254" y="0" on="1"/>
        <pt x="150" y="0" on="1"/>
        <pt x="150" y="848" on="1"/>
      </contour>
    </TTGlyph>
    <TTGlyph name="l" xMin="133" yMin="0" xMax="600" yMax="848">
      <contour>
        <pt x="419" y="848" on="1"/>
        <pt x="419" y="98" on="1"/>
        <pt x="600" y="98" on="1"/>
        <pt x="600" y="0" on="1"/>
        <pt x="133" y="0" on="1"/>
        <pt x="133" y="98" on="1"/>
        <pt x="315" y="98" on="1"/>
        <pt x="315" y="750" on="1"/>
        <pt x="133" y="750" on="1"/>
        <pt x="133" y="848" on="1"/>
      </contour>
    </TTGlyph>
    <TTGlyph name="less" xMin="116" yMin="37" xMax="584" yMax="663">
      <contour>
        <pt x="584" y="663" on="1"/>
        <pt x="584" y="555" on="1"/>
        <pt x="180" y="355" on="1"/>
        <pt x="180" y="345" on="1"/>
        <pt x="584" y="145" on="1"/>
        <pt x="584" y="37" on="1"/>
        <pt x="116" y="274" on="1"/>
        <pt x="116" y="426" on="1"/>
      </contour>
    </TTGlyph>
    <TTGlyph name="less.case" xMin="116" yMin="87" xMax="584" yMax="713">
      <contour>
        <pt x="584" y="713" on="1"/>
        <pt x="584" y="605" on="1"/>
        <pt x="180" y="405" on="1"/>
        <pt x="180" y="395" on="1"/>
        <pt x="584" y="195" on="1"/>
        <pt x="584" y="87" on="1"/>
        <pt x="116" y="324" on="1"/>
        <pt x="116" y="476" on="1"/>
      </contour>
    </TTGlyph>
    <TTGlyph name="m" xMin="78" yMin="0" xMax="626" yMax="615">
      <contour>
        <pt x="182" y="599" on="1"/>
        <pt x="182" y="541" on="1"/>
        <pt x="213" y="541" on="1"/>
        <pt x="228" y="615" on="0"/>
        <pt x="299" y="615" on="1"/>
        <pt x="332" y="615" on="0"/>
        <pt x="379" y="576" on="0"/>
        <pt x="391" y="540" on="1"/>
        <pt x="419" y="540" on="1"/>
        <pt x="428" y="577" on="0"/>
        <pt x="478" y="615" on="0"/>
        <pt x="518" y="615" on="1"/>
        <pt x="570" y="615" on="0"/>
        <pt x="626" y="532" on="0"/>
        <pt x="626" y="454" on="1"/>
        <pt x="626" y="0" on="1"/>
        <pt x="522" y="0" on="1"/>
        <pt x="522" y="429" on="1"/>
        <pt x="522" y="472" on="0"/>
        <pt x="493" y="513" on="0"/>
        <pt x="463" y="513" on="1"/>
        <pt x="433" y="513" on="0"/>
        <pt x="404" y="472" on="0"/>
        <pt x="404" y="429" on="1"/>
        <pt x="404" y="0" on="1"/>
        <pt x="300" y="0" on="1"/>
        <pt x="300" y="429" on="1"/>
        <pt x="300" y="472" on="0"/>
        <pt x="271" y="513" on="0"/>
        <pt x="241" y="513" on="1"/>
        <pt x="211" y="513" on="0"/>
        <pt x="182" y="472" on="0"/>
        <pt x="182" y="429" on="1"/>
        <pt x="182" y="0" on="1"/>
        <pt x="78" y="0" on="1"/>
        <pt x="78" y="599" on="1"/>
      </contour>
    </TTGlyph>
    <TTGlyph name="minus" xMin="90" yMin="303" xMax="610" yMax="397">
      <contour>
        <pt x="90" y="397" on="1"/>
        <pt x="610" y="397" on="1"/>
        <pt x="610" y="303" on="1"/>
        <pt x="90" y="303" on="1"/>
      </contour>
    </TTGlyph>
    <TTGlyph name="minus.case" xMin="90" yMin="353" xMax="610" yMax="447">
      <component glyphName="minus" x="0" y="50" flags="0x4"/>
    </TTGlyph>
    <TTGlyph name="multiply" xMin="115" yMin="115" xMax="585" yMax="585">
      <contour>
        <pt x="350" y="288" on="1"/>
        <pt x="177" y="115" on="1"/>
        <pt x="115" y="177" on="1"/>
        <pt x="288" y="350" on="1"/>
        <pt x="115" y="523" on="1"/>
        <pt x="177" y="585" on="1"/>
        <pt x="350" y="412" on="1"/>
        <pt x="523" y="585" on="1"/>
        <pt x="585" y="523" on="1"/>
        <pt x="412" y="350" on="1"/>
        <pt x="585" y="177" on="1"/>
        <pt x="523" y="115" on="1"/>
      </contour>
    </TTGlyph>
    <TTGlyph name="multiply.case" xMin="115" yMin="165" xMax="585" yMax="635">
      <component glyphName="multiply" x="0" y="50" flags="0x4"/>
    </TTGlyph>
    <TTGlyph name="n" xMin="116" yMin="0" xMax="595" yMax="615">
      <contour>
        <pt x="220" y="599" on="1"/>
        <pt x="220" y="517" on="1"/>
        <pt x="249" y="517" on="1"/>
        <pt x="263" y="564" on="0"/>
        <pt x="341" y="615" on="0"/>
        <pt x="399" y="615" on="1"/>
        <pt x="488" y="615" on="0"/>
        <pt x="595" y="491" on="0"/>
        <pt x="595" y="388" on="1"/>
        <pt x="595" y="0" on="1"/>
        <pt x="491" y="0" on="1"/>
        <pt x="491" y="360" on="1"/>
        <pt x="491" y="437" on="0"/>
        <pt x="422" y="517" on="0"/>
        <pt x="356" y="517" on="1"/>
        <pt x="290" y="517" on="0"/>
        <pt x="220" y="436" on="0"/>
        <pt x="220" y="360" on="1"/>
        <pt x="220" y="0" on="1"/>
        <pt x="116" y="0" on="1"/>
        <pt x="116" y="599" on="1"/>
      </contour>
    </TTGlyph>
    <TTGlyph name="nine" xMin="75" yMin="0" xMax="625" yMax="816">
      <contour>
        <pt x="433" y="816" on="0"/>
        <pt x="557" y="749" on="0"/>
        <pt x="625" y="626" on="0"/>
        <pt x="625" y="545" on="1"/>
        <pt x="625" y="482" on="0"/>
        <pt x="585" y="364" on="0"/>
        <pt x="542" y="303" on="1"/>
        <pt x="339" y="0" on="1"/>
        <pt x="209" y="0" on="1"/>
        <pt x="423" y="308" on="1"/>
        <pt x="400" y="324" on="1"/>
        <pt x="387" y="310" on="0"/>
        <pt x="333" y="293" on="0"/>
        <pt x="301" y="293" on="1"/>
        <pt x="236" y="293" on="0"/>
        <pt x="133" y="358" on="0"/>
        <pt x="75" y="472" on="0"/>
        <pt x="75" y="545" on="1"/>
        <pt x="75" y="626" on="0"/>
        <pt x="143" y="749" on="0"/>
        <pt x="268" y="816" on="0"/>
        <pt x="351" y="816" on="1"/>
      </contour>
      <contour>
        <pt x="185" y="469" on="0"/>
        <pt x="276" y="378" on="0"/>
        <pt x="350" y="378" on="1"/>
        <pt x="424" y="378" on="0"/>
        <pt x="515" y="469" on="0"/>
        <pt x="515" y="545" on="1"/>
        <pt x="515" y="620" on="0"/>
        <pt x="424" y="712" on="0"/>
        <pt x="350" y="712" on="1"/>
        <pt x="276" y="712" on="0"/>
        <pt x="185" y="620" on="0"/>
        <pt x="185" y="545" on="1"/>
      </contour>
    </TTGlyph>
    <TTGlyph name="notequal" xMin="90" yMin="10" xMax="610" yMax="690">
      <contour>
        <pt x="90" y="534" on="1"/>
        <pt x="388" y="534" on="1"/>
        <pt x="461" y="690" on="1"/>
        <pt x="557" y="690" on="1"/>
        <pt x="484" y="534" on="1"/>
        <pt x="610" y="534" on="1"/>
        <pt x="610" y="439" on="1"/>
        <pt x="440" y="439" on="1"/>
        <pt x="356" y="261" on="1"/>
        <pt x="610" y="261" on="1"/>
        <pt x="610" y="166" on="1"/>
        <pt x="312" y="166" on="1"/>
        <pt x="239" y="10" on="1"/>
        <pt x="143" y="10" on="1"/>
        <pt x="216" y="166" on="1"/>
        <pt x="90" y="166" on="1"/>
        <pt x="90" y="261" on="1"/>
        <pt x="260" y="261" on="1"/>
        <pt x="344" y="439" on="1"/>
        <pt x="90" y="439" on="1"/>
      </contour>
    </TTGlyph>
    <TTGlyph name="notequal.case" xMin="90" yMin="60" xMax="610" yMax="740">
      <component glyphName="notequal" x="0" y="50" flags="0x4"/>
    </TTGlyph>
    <TTGlyph name="numbersign" xMin="47" yMin="0" xMax="653" yMax="800">
      <contour>
        <pt x="324" y="597" on="1"/>
        <pt x="453" y="597" on="1"/>
        <pt x="493" y="800" on="1"/>
        <pt x="578" y="800" on="1"/>
        <pt x="538" y="597" on="1"/>
        <pt x="653" y="597" on="1"/>
        <pt x="653" y="507" on="1"/>
        <pt x="520" y="507" on="1"/>
        <pt x="479" y="293" on="1"/>
        <pt x="599" y="293" on="1"/>
        <pt x="599" y="203" on="1"/>
        <pt x="461" y="203" on="1"/>
        <pt x="421" y="0" on="1"/>
        <pt x="336" y="0" on="1"/>
        <pt x="376" y="203" on="1"/>
        <pt x="247" y="203" on="1"/>
        <pt x="207" y="0" on="1"/>
        <pt x="122" y="0" on="1"/>
        <pt x="162" y="203" on="1"/>
        <pt x="47" y="203" on="1"/>
        <pt x="47" y="293" on="1"/>
        <pt x="180" y="293" on="1"/>
        <pt x="221" y="507" on="1"/>
        <pt x="101" y="507" on="1"/>
        <pt x="101" y="597" on="1"/>
        <pt x="239" y="597" on="1"/>
        <pt x="279" y="800" on="1"/>
        <pt x="364" y="800" on="1"/>
      </contour>
      <contour>
        <pt x="394" y="293" on="1"/>
        <pt x="435" y="507" on="1"/>
        <pt x="306" y="507" on="1"/>
        <pt x="265" y="293" on="1"/>
      </contour>
    </TTGlyph>
    <TTGlyph name="o" xMin="81" yMin="-16" xMax="619" yMax="615">
      <contour>
        <pt x="268" y="-16" on="0"/>
        <pt x="147" y="61" on="0"/>
        <pt x="81" y="204" on="0"/>
        <pt x="81" y="300" on="1"/>
        <pt x="81" y="396" on="0"/>
        <pt x="147" y="538" on="0"/>
        <pt x="268" y="615" on="0"/>
        <pt x="350" y="615" on="1"/>
        <pt x="432" y="615" on="0"/>
        <pt x="553" y="538" on="0"/>
        <pt x="619" y="396" on="0"/>
        <pt x="619" y="300" on="1"/>
        <pt x="619" y="204" on="0"/>
        <pt x="553" y="61" on="0"/>
        <pt x="432" y="-16" on="0"/>
        <pt x="350" y="-16" on="1"/>
      </contour>
      <contour>
        <pt x="184" y="197" on="0"/>
        <pt x="271" y="82" on="0"/>
        <pt x="350" y="82" on="1"/>
        <pt x="429" y="82" on="0"/>
        <pt x="516" y="197" on="0"/>
        <pt x="516" y="300" on="1"/>
        <pt x="516" y="403" on="0"/>
        <pt x="429" y="517" on="0"/>
        <pt x="350" y="517" on="1"/>
        <pt x="271" y="517" on="0"/>
        <pt x="184" y="403" on="0"/>
        <pt x="184" y="300" on="1"/>
      </contour>
    </TTGlyph>
    <TTGlyph name="one" xMin="106" yMin="0" xMax="647" yMax="800">
      <contour>
        <pt x="441" y="98" on="1"/>
        <pt x="647" y="98" on="1"/>
        <pt x="647" y="0" on="1"/>
        <pt x="106" y="0" on="1"/>
        <pt x="106" y="98" on="1"/>
        <pt x="333" y="98" on="1"/>
        <pt x="333" y="712" on="1"/>
        <pt x="106" y="558" on="1"/>
        <pt x="106" y="685" on="1"/>
        <pt x="286" y="800" on="1"/>
        <pt x="441" y="800" on="1"/>
      </contour>
    </TTGlyph>
    <TTGlyph name="p" xMin="109" yMin="-200" xMax="634" yMax="615">
      <contour>
        <pt x="470" y="615" on="0"/>
        <pt x="577" y="538" on="0"/>
        <pt x="634" y="395" on="0"/>
        <pt x="634" y="299" on="1"/>
        <pt x="634" y="203" on="0"/>
        <pt x="577" y="61" on="0"/>
        <pt x="470" y="-16" on="0"/>
        <pt x="399" y="-16" on="1"/>
        <pt x="337" y="-16" on="0"/>
        <pt x="255" y="37" on="0"/>
        <pt x="242" y="85" on="1"/>
        <pt x="213" y="85" on="1"/>
        <pt x="213" y="-200" on="1"/>
        <pt x="109" y="-200" on="1"/>
        <pt x="109" y="599" on="1"/>
        <pt x="213" y="599" on="1"/>
        <pt x="213" y="514" on="1"/>
        <pt x="242" y="514" on="1"/>
        <pt x="255" y="562" on="0"/>
        <pt x="337" y="615" on="0"/>
        <pt x="399" y="615" on="1"/>
      </contour>
      <contour>
        <pt x="207" y="195" on="0"/>
        <pt x="291" y="80" on="0"/>
        <pt x="368" y="80" on="1"/>
        <pt x="445" y="80" on="0"/>
        <pt x="529" y="195" on="0"/>
        <pt x="529" y="299" on="1"/>
        <pt x="529" y="404" on="0"/>
        <pt x="445" y="519" on="0"/>
        <pt x="368" y="519" on="1"/>
        <pt x="291" y="519" on="0"/>
        <pt x="207" y="404" on="0"/>
        <pt x="207" y="299" on="1"/>
      </contour>
    </TTGlyph>
    <TTGlyph name="parenleft" xMin="246" yMin="-154" xMax="553" yMax="914">
      <contour>
        <pt x="455" y="765" on="0"/>
        <pt x="350" y="537" on="0"/>
        <pt x="350" y="380" on="1"/>
        <pt x="351" y="223" on="0"/>
        <pt x="456" y="-5" on="0"/>
        <pt x="553" y="-60" on="1"/>
        <pt x="553" y="-154" on="1"/>
        <pt x="459" y="-112" on="0"/>
        <pt x="321" y="46" on="0"/>
        <pt x="246" y="258" on="0"/>
        <pt x="246" y="380" on="1"/>
        <pt x="246" y="502" on="0"/>
        <pt x="320" y="714" on="0"/>
        <pt x="458" y="872" on="0"/>
        <pt x="553" y="914" on="1"/>
        <pt x="553" y="820" on="1"/>
      </contour>
    </TTGlyph>
    <TTGlyph name="parenright" xMin="147" yMin="-154" xMax="454" yMax="914">
      <contour>
        <pt x="242" y="872" on="0"/>
        <pt x="380" y="714" on="0"/>
        <pt x="454" y="502" on="0"/>
        <pt x="454" y="380" on="1"/>
        <pt x="454" y="258" on="0"/>
        <pt x="379" y="46" on="0"/>
        <pt x="241" y="-112" on="0"/>
        <pt x="147" y="-154" on="1"/>
        <pt x="147" y="-60" on="1"/>
        <pt x="244" y="-5" on="0"/>
        <pt x="349" y="223" on="0"/>
        <pt x="350" y="380" on="1"/>
        <pt x="350" y="537" on="0"/>
        <pt x="245" y="765" on="0"/>
        <pt x="147" y="820" on="1"/>
        <pt x="147" y="914" on="1"/>
      </contour>
    </TTGlyph>
    <TTGlyph name="percent" xMin="47" yMin="-16" xMax="653" yMax="816">
      <contour>
        <pt x="47" y="234" on="1"/>
        <pt x="653" y="659" on="1"/>
        <pt x="653" y="566" on="1"/>
        <pt x="47" y="141" on="1"/>
      </contour>
      <contour>
        <pt x="61" y="724" on="0"/>
        <pt x="138" y="816" on="0"/>
        <pt x="210" y="816" on="1"/>
        <pt x="282" y="816" on="0"/>
        <pt x="359" y="724" on="0"/>
        <pt x="359" y="638" on="1"/>
        <pt x="359" y="552" on="0"/>
        <pt x="282" y="460" on="0"/>
        <pt x="210" y="460" on="1"/>
        <pt x="138" y="460" on="0"/>
        <pt x="61" y="552" on="0"/>
        <pt x="61" y="638" on="1"/>
      </contour>
      <contour>
        <pt x="154" y="595" on="0"/>
        <pt x="183" y="551" on="0"/>
        <pt x="210" y="551" on="1"/>
        <pt x="237" y="551" on="0"/>
        <pt x="267" y="596" on="0"/>
        <pt x="267" y="638" on="1"/>
        <pt x="267" y="680" on="0"/>
        <pt x="237" y="725" on="0"/>
        <pt x="210" y="725" on="1"/>
        <pt x="183" y="725" on="0"/>
        <pt x="154" y="681" on="0"/>
        <pt x="154" y="638" on="1"/>
      </contour>
      <contour>
        <pt x="341" y="248" on="0"/>
        <pt x="418" y="340" on="0"/>
        <pt x="490" y="340" on="1"/>
        <pt x="562" y="340" on="0"/>
        <pt x="639" y="248" on="0"/>
        <pt x="639" y="162" on="1"/>
        <pt x="639" y="76" on="0"/>
        <pt x="562" y="-16" on="0"/>
        <pt x="490" y="-16" on="1"/>
        <pt x="418" y="-16" on="0"/>
        <pt x="341" y="76" on="0"/>
        <pt x="341" y="162" on="1"/>
      </contour>
      <contour>
        <pt x="433" y="120" on="0"/>
        <pt x="463" y="75" on="0"/>
        <pt x="490" y="75" on="1"/>
        <pt x="517" y="75" on="0"/>
        <pt x="546" y="119" on="0"/>
        <pt x="546" y="162" on="1"/>
        <pt x="546" y="205" on="0"/>
        <pt x="517" y="249" on="0"/>
        <pt x="490" y="249" on="1"/>
        <pt x="463" y="249" on="0"/>
        <pt x="433" y="204" on="0"/>
        <pt x="433" y="162" on="1"/>
      </contour>
    </TTGlyph>
    <TTGlyph name="percent.cv01" xMin="61" yMin="-16" xMax="639" yMax="816">
      <contour>
        <pt x="415" y="-16" on="0"/>
        <pt x="341" y="88" on="0"/>
        <pt x="341" y="194" on="1"/>
        <pt x="341" y="400" on="0"/>
        <pt x="490" y="400" on="1"/>
        <pt x="639" y="400" on="0"/>
        <pt x="639" y="194" on="1"/>
        <pt x="639" y="88" on="0"/>
        <pt x="565" y="-16" on="0"/>
        <pt x="490" y="-16" on="1"/>
      </contour>
      <contour>
        <pt x="61" y="712" on="0"/>
        <pt x="135" y="816" on="0"/>
        <pt x="210" y="816" on="1"/>
        <pt x="285" y="816" on="0"/>
        <pt x="359" y="712" on="0"/>
        <pt x="359" y="606" on="1"/>
        <pt x="359" y="400" on="0"/>
        <pt x="210" y="400" on="1"/>
        <pt x="61" y="400" on="0"/>
        <pt x="61" y="606" on="1"/>
      </contour>
      <contour>
        <pt x="231" y="340" on="1"/>
        <pt x="311" y="340" on="1"/>
        <pt x="177" y="0" on="1"/>
        <pt x="91" y="0" on="1"/>
      </contour>
      <contour>
        <pt x="154" y="547" on="0"/>
        <pt x="182" y="491" on="0"/>
        <pt x="210" y="491" on="1"/>
        <pt x="267" y="491" on="0"/>
        <pt x="267" y="606" on="1"/>
        <pt x="267" y="725" on="0"/>
        <pt x="210" y="725" on="1"/>
        <pt x="154" y="725" on="0"/>
        <pt x="154" y="606" on="1"/>
      </contour>
      <contour>
        <pt x="523" y="800" on="1"/>
        <pt x="609" y="800" on="1"/>
        <pt x="469" y="460" on="1"/>
        <pt x="389" y="460" on="1"/>
      </contour>
      <contour>
        <pt x="433" y="75" on="0"/>
        <pt x="490" y="75" on="1"/>
        <pt x="546" y="75" on="0"/>
        <pt x="546" y="194" on="1"/>
        <pt x="546" y="253" on="0"/>
        <pt x="518" y="309" on="0"/>
        <pt x="490" y="309" on="1"/>
        <pt x="433" y="309" on="0"/>
        <pt x="433" y="194" on="1"/>
      </contour>
    </TTGlyph>
    <TTGlyph name="percent.cv02" xMin="61" yMin="-18" xMax="639" yMax="818">
      <contour>
        <pt x="418" y="-16" on="0"/>
        <pt x="341" y="76" on="0"/>
        <pt x="341" y="162" on="1"/>
        <pt x="341" y="248" on="0"/>
        <pt x="418" y="340" on="0"/>
        <pt x="490" y="340" on="1"/>
        <pt x="562" y="340" on="0"/>
        <pt x="639" y="248" on="0"/>
        <pt x="639" y="162" on="1"/>
        <pt x="639" y="76" on="0"/>
        <pt x="562" y="-16" on="0"/>
        <pt x="490" y="-16" on="1"/>
      </contour>
      <contour>
        <pt x="61" y="724" on="0"/>
        <pt x="138" y="816" on="0"/>
        <pt x="210" y="816" on="1"/>
        <pt x="282" y="816" on="0"/>
        <pt x="359" y="724" on="0"/>
        <pt x="359" y="638" on="1"/>
        <pt x="359" y="552" on="0"/>
        <pt x="282" y="460" on="0"/>
        <pt x="210" y="460" on="1"/>
        <pt x="138" y="460" on="0"/>
        <pt x="61" y="552" on="0"/>
        <pt x="61" y="638" on="1"/>
      </contour>
      <contour>
        <pt x="98" y="104" on="1"/>
        <pt x="602" y="818" on="1"/>
        <pt x="602" y="696" on="1"/>
        <pt x="98" y="-18" on="1"/>
      </contour>
      <contour>
        <pt x="154" y="595" on="0"/>
        <pt x="183" y="551" on="0"/>
        <pt x="210" y="551" on="1"/>
        <pt x="237" y="551" on="0"/>
        <pt x="267" y="596" on="0"/>
        <pt x="267" y="638" on="1"/>
        <pt x="267" y="680" on="0"/>
        <pt x="237" y="725" on="0"/>
        <pt x="210" y="725" on="1"/>
        <pt x="183" y="725" on="0"/>
        <pt x="154" y="681" on="0"/>
        <pt x="154" y="638" on="1"/>
      </contour>
      <contour>
        <pt x="433" y="120" on="0"/>
        <pt x="463" y="75" on="0"/>
        <pt x="490" y="75" on="1"/>
        <pt x="517" y="75" on="0"/>
        <pt x="546" y="119" on="0"/>
        <pt x="546" y="162" on="1"/>
        <pt x="546" y="205" on="0"/>
        <pt x="517" y="249" on="0"/>
        <pt x="490" y="249" on="1"/>
        <pt x="463" y="249" on="0"/>
        <pt x="433" y="204" on="0"/>
        <pt x="433" y="162" on="1"/>
      </contour>
    </TTGlyph>
    <TTGlyph name="period" xMin="262" yMin="-8" xMax="438" yMax="175">
      <contour>
        <pt x="307" y="-8" on="0"/>
        <pt x="262" y="40" on="0"/>
        <pt x="262" y="84" on="1"/>
        <pt x="262" y="128" on="0"/>
        <pt x="307" y="175" on="0"/>
        <pt x="350" y="175" on="1"/>
        <pt x="393" y="175" on="0"/>
        <pt x="438" y="128" on="0"/>
        <pt x="438" y="84" on="1"/>
        <pt x="438" y="40" on="0"/>
        <pt x="393" y="-8" on="0"/>
        <pt x="350" y="-8" on="1"/>
      </contour>
    </TTGlyph>
    <TTGlyph name="plus" xMin="90" yMin="90" xMax="610" yMax="610">
      <contour>
        <pt x="90" y="397" on="1"/>
        <pt x="303" y="397" on="1"/>
        <pt x="303" y="610" on="1"/>
        <pt x="397" y="610" on="1"/>
        <pt x="397" y="397" on="1"/>
        <pt x="610" y="397" on="1"/>
        <pt x="610" y="303" on="1"/>
        <pt x="397" y="303" on="1"/>
        <pt x="397" y="90" on="1"/>
        <pt x="303" y="90" on="1"/>
        <pt x="303" y="303" on="1"/>
        <pt x="90" y="303" on="1"/>
      </contour>
    </TTGlyph>
    <TTGlyph name="plus.case" xMin="90" yMin="140" xMax="610" yMax="660">
      <component glyphName="plus" x="0" y="50" flags="0x4"/>
    </TTGlyph>
    <TTGlyph name="q" xMin="66" yMin="-200" xMax="591" yMax="615">
      <contour>
        <pt x="363" y="615" on="0"/>
        <pt x="445" y="562" on="0"/>
        <pt x="458" y="514" on="1"/>
        <pt x="487" y="514" on="1"/>
        <pt x="487" y="599" on="1"/>
        <pt x="591" y="599" on="1"/>
        <pt x="591" y="-200" on="1"/>
        <pt x="487" y="-200" on="1"/>
        <pt x="487" y="85" on="1"/>
        <pt x="458" y="85" on="1"/>
        <pt x="445" y="37" on="0"/>
        <pt x="363" y="-16" on="0"/>
        <pt x="301" y="-16" on="1"/>
        <pt x="230" y="-16" on="0"/>
        <pt x="123" y="61" on="0"/>
        <pt x="66" y="203" on="0"/>
        <pt x="66" y="299" on="1"/>
        <pt x="66" y="395" on="0"/>
        <pt x="123" y="538" on="0"/>
        <pt x="230" y="615" on="0"/>
        <pt x="301" y="615" on="1"/>
      </contour>
      <contour>
        <pt x="171" y="195" on="0"/>
        <pt x="255" y="80" on="0"/>
        <pt x="332" y="80" on="1"/>
        <pt x="409" y="80" on="0"/>
        <pt x="493" y="195" on="0"/>
        <pt x="493" y="299" on="1"/>
        <pt x="493" y="404" on="0"/>
        <pt x="409" y="519" on="0"/>
        <pt x="332" y="519" on="1"/>
        <pt x="255" y="519" on="0"/>
        <pt x="171" y="404" on="0"/>
        <pt x="171" y="299" on="1"/>
      </contour>
    </TTGlyph>
    <TTGlyph name="question" xMin="71" yMin="-7" xMax="610" yMax="816">
      <contour>
        <pt x="273" y="284" on="0"/>
        <pt x="308" y="365" on="0"/>
        <pt x="359" y="416" on="0"/>
        <pt x="400" y="447" on="1"/>
        <pt x="434" y="472" on="0"/>
        <pt x="474" y="510" on="0"/>
        <pt x="500" y="564" on="0"/>
        <pt x="500" y="600" on="1"/>
        <pt x="500" y="652" on="0"/>
        <pt x="421" y="712" on="0"/>
        <pt x="353" y="712" on="1"/>
        <pt x="280" y="712" on="0"/>
        <pt x="194" y="641" on="0"/>
        <pt x="187" y="576" on="1"/>
        <pt x="71" y="576" on="1"/>
        <pt x="85" y="691" on="0"/>
        <pt x="232" y="816" on="0"/>
        <pt x="353" y="816" on="1"/>
        <pt x="473" y="816" on="0"/>
        <pt x="610" y="700" on="0"/>
        <pt x="610" y="600" on="1"/>
        <pt x="610" y="546" on="0"/>
        <pt x="575" y="468" on="0"/>
        <pt x="524" y="416" on="0"/>
        <pt x="483" y="384" on="1"/>
        <pt x="448" y="356" on="0"/>
        <pt x="408" y="317" on="0"/>
        <pt x="381" y="261" on="0"/>
        <pt x="381" y="225" on="1"/>
        <pt x="273" y="225" on="1"/>
      </contour>
      <contour>
        <pt x="245" y="108" on="0"/>
        <pt x="289" y="148" on="0"/>
        <pt x="329" y="148" on="1"/>
        <pt x="369" y="148" on="0"/>
        <pt x="412" y="108" on="0"/>
        <pt x="412" y="71" on="1"/>
        <pt x="412" y="34" on="0"/>
        <pt x="369" y="-7" on="0"/>
        <pt x="329" y="-7" on="1"/>
        <pt x="289" y="-7" on="0"/>
        <pt x="245" y="33" on="0"/>
        <pt x="245" y="71" on="1"/>
      </contour>
    </TTGlyph>
    <TTGlyph name="quotedbl" xMin="180" yMin="461" xMax="520" yMax="848">
      <component glyphName="quotesingle" x="-112" y="0" flags="0x0"/>
      <component glyphName="quotesingle" x="112" y="0" flags="0x0"/>
    </TTGlyph>
    <TTGlyph name="quotedblbase" xMin="107" yMin="-179" xMax="563" yMax="175">
      <component glyphName="comma" x="-143" y="0" flags="0x0"/>
      <component glyphName="comma" x="115" y="0" flags="0x0"/>
    </TTGlyph>
    <TTGlyph name="quotedblleft" xMin="137" yMin="482" xMax="593" yMax="836">
      <contour>
        <pt x="536" y="665" on="0"/>
        <pt x="581" y="617" on="0"/>
        <pt x="581" y="573" on="1"/>
        <pt x="581" y="529" on="0"/>
        <pt x="536" y="482" on="0"/>
        <pt x="493" y="482" on="1"/>
        <pt x="443" y="482" on="0"/>
        <pt x="395" y="540" on="0"/>
        <pt x="395" y="600" on="1"/>
        <pt x="395" y="674" on="0"/>
        <pt x="426" y="790" on="0"/>
        <pt x="458" y="836" on="1"/>
        <pt x="593" y="836" on="1"/>
        <pt x="485" y="758" on="0"/>
        <pt x="466" y="662" on="1"/>
        <pt x="478" y="665" on="0"/>
        <pt x="493" y="665" on="1"/>
      </contour>
      <contour>
        <pt x="137" y="674" on="0"/>
        <pt x="168" y="790" on="0"/>
        <pt x="200" y="836" on="1"/>
        <pt x="335" y="836" on="1"/>
        <pt x="227" y="758" on="0"/>
        <pt x="208" y="662" on="1"/>
        <pt x="220" y="665" on="0"/>
        <pt x="235" y="665" on="1"/>
        <pt x="278" y="665" on="0"/>
        <pt x="323" y="617" on="0"/>
        <pt x="323" y="573" on="1"/>
        <pt x="323" y="529" on="0"/>
        <pt x="278" y="482" on="0"/>
        <pt x="235" y="482" on="1"/>
        <pt x="185" y="482" on="0"/>
        <pt x="137" y="540" on="0"/>
        <pt x="137" y="600" on="1"/>
      </contour>
    </TTGlyph>
    <TTGlyph name="quotedblright" xMin="107" yMin="546" xMax="563" yMax="900">
      <component glyphName="quotedblbase" x="0" y="725" flags="0x4"/>
    </TTGlyph>
    <TTGlyph name="quoteleft" xMin="252" yMin="482" xMax="450" yMax="836">
      <contour>
        <pt x="393" y="665" on="0"/>
        <pt x="438" y="617" on="0"/>
        <pt x="438" y="573" on="1"/>
        <pt x="438" y="529" on="0"/>
        <pt x="393" y="482" on="0"/>
        <pt x="350" y="482" on="1"/>
        <pt x="300" y="482" on="0"/>
        <pt x="252" y="540" on="0"/>
        <pt x="252" y="600" on="1"/>
        <pt x="252" y="674" on="0"/>
        <pt x="283" y="790" on="0"/>
        <pt x="315" y="836" on="1"/>
        <pt x="450" y="836" on="1"/>
        <pt x="342" y="758" on="0"/>
        <pt x="323" y="662" on="1"/>
        <pt x="335" y="665" on="0"/>
        <pt x="350" y="665" on="1"/>
      </contour>
    </TTGlyph>
    <TTGlyph name="quoteright" xMin="250" yMin="546" xMax="448" yMax="900">
      <component glyphName="comma" x="0" y="725" flags="0x4"/>
    </TTGlyph>
    <TTGlyph name="quotesinglbase" xMin="250" yMin="-179" xMax="448" yMax="175">
      <component glyphName="comma" x="0" y="0" flags="0x0"/>
    </TTGlyph>
    <TTGlyph name="quotesingle" xMin="292" yMin="461" xMax="408" yMax="848">
      <contour>
        <pt x="408" y="848" on="1"/>
        <pt x="389" y="461" on="1"/>
        <pt x="311" y="461" on="1"/>
        <pt x="292" y="848" on="1"/>
      </contour>
    </TTGlyph>
    <TTGlyph name="r" xMin="96" yMin="0" xMax="633" yMax="615">
      <contour>
        <pt x="333" y="599" on="1"/>
        <pt x="333" y="532" on="1"/>
        <pt x="362" y="532" on="1"/>
        <pt x="388" y="615" on="0"/>
        <pt x="484" y="615" on="1"/>
        <pt x="554" y="615" on="0"/>
        <pt x="633" y="515" on="0"/>
        <pt x="633" y="427" on="1"/>
        <pt x="633" y="340" on="1"/>
        <pt x="523" y="340" on="1"/>
        <pt x="523" y="412" on="1"/>
        <pt x="523" y="516" on="0"/>
        <pt x="440" y="516" on="1"/>
        <pt x="333" y="516" on="0"/>
        <pt x="333" y="328" on="1"/>
        <pt x="333" y="98" on="1"/>
        <pt x="521" y="98" on="1"/>
        <pt x="521" y="0" on="1"/>
        <pt x="115" y="0" on="1"/>
        <pt x="115" y="98" on="1"/>
        <pt x="229" y="98" on="1"/>
        <pt x="229" y="501" on="1"/>
        <pt x="96" y="501" on="1"/>
        <pt x="96" y="599" on="1"/>
      </contour>
    </TTGlyph>
    <TTGlyph name="s" xMin="112" yMin="-16" xMax="604" yMax="615">
      <contour>
        <pt x="222" y="134" on="0"/>
        <pt x="295" y="82" on="0"/>
        <pt x="357" y="82" on="1"/>
        <pt x="417" y="82" on="0"/>
        <pt x="484" y="128" on="0"/>
        <pt x="484" y="169" on="1"/>
        <pt x="484" y="200" on="0"/>
        <pt x="434" y="236" on="0"/>
        <pt x="379" y="244" on="1"/>
        <pt x="305" y="255" on="1"/>
        <pt x="209" y="269" on="0"/>
        <pt x="116" y="355" on="0"/>
        <pt x="116" y="429" on="1"/>
        <pt x="116" y="516" on="0"/>
        <pt x="242" y="615" on="0"/>
        <pt x="354" y="615" on="1"/>
        <pt x="466" y="615" on="0"/>
        <pt x="598" y="503" on="0"/>
        <pt x="604" y="403" on="1"/>
        <pt x="502" y="403" on="1"/>
        <pt x="498" y="458" on="0"/>
        <pt x="421" y="517" on="0"/>
        <pt x="353" y="517" on="1"/>
        <pt x="289" y="517" on="0"/>
        <pt x="219" y="471" on="0"/>
        <pt x="219" y="430" on="1"/>
        <pt x="219" y="399" on="0"/>
        <pt x="269" y="363" on="0"/>
        <pt x="324" y="355" on="1"/>
        <pt x="398" y="344" on="1"/>
        <pt x="494" y="330" on="0"/>
        <pt x="587" y="244" on="0"/>
        <pt x="587" y="170" on="1"/>
        <pt x="587" y="84" on="0"/>
        <pt x="463" y="-16" on="0"/>
        <pt x="355" y="-16" on="1"/>
        <pt x="249" y="-16" on="0"/>
        <pt x="121" y="88" on="0"/>
        <pt x="112" y="183" on="1"/>
        <pt x="215" y="183" on="1"/>
      </contour>
    </TTGlyph>
    <TTGlyph name="section" xMin="119" yMin="-216" xMax="581" yMax="816">
      <contour>
        <pt x="456" y="656" on="0"/>
        <pt x="402" y="712" on="0"/>
        <pt x="357" y="712" on="1"/>
        <pt x="317" y="712" on="0"/>
        <pt x="268" y="665" on="0"/>
        <pt x="268" y="626" on="1"/>
        <pt x="268" y="534" on="0"/>
        <pt x="384" y="511" on="1"/>
        <pt x="476" y="493" on="0"/>
        <pt x="581" y="385" on="0"/>
        <pt x="581" y="308" on="1"/>
        <pt x="581" y="240" on="0"/>
        <pt x="507" y="148" on="0"/>
        <pt x="438" y="130" on="1"/>
        <pt x="438" y="100" on="1"/>
        <pt x="489" y="85" on="0"/>
        <pt x="542" y="15" on="0"/>
        <pt x="542" y="-37" on="1"/>
        <pt x="542" y="-119" on="0"/>
        <pt x="434" y="-216" on="0"/>
        <pt x="344" y="-216" on="1"/>
        <pt x="250" y="-216" on="0"/>
        <pt x="138" y="-106" on="0"/>
        <pt x="129" y="-5" on="1"/>
        <pt x="240" y="-5" on="1"/>
        <pt x="244" y="-56" on="0"/>
        <pt x="298" y="-112" on="0"/>
        <pt x="343" y="-112" on="1"/>
        <pt x="383" y="-112" on="0"/>
        <pt x="432" y="-65" on="0"/>
        <pt x="432" y="-26" on="1"/>
        <pt x="432" y="66" on="0"/>
        <pt x="316" y="89" on="1"/>
        <pt x="224" y="107" on="0"/>
        <pt x="119" y="215" on="0"/>
        <pt x="119" y="292" on="1"/>
        <pt x="119" y="360" on="0"/>
        <pt x="193" y="452" on="0"/>
        <pt x="262" y="470" on="1"/>
        <pt x="262" y="500" on="1"/>
        <pt x="211" y="515" on="0"/>
        <pt x="158" y="585" on="0"/>
        <pt x="158" y="637" on="1"/>
        <pt x="158" y="719" on="0"/>
        <pt x="266" y="816" on="0"/>
        <pt x="356" y="816" on="1"/>
        <pt x="450" y="816" on="0"/>
        <pt x="562" y="706" on="0"/>
        <pt x="571" y="605" on="1"/>
        <pt x="460" y="605" on="1"/>
      </contour>
      <contour>
        <pt x="228" y="251" on="0"/>
        <pt x="293" y="195" on="0"/>
        <pt x="350" y="195" on="1"/>
        <pt x="407" y="195" on="0"/>
        <pt x="472" y="251" on="0"/>
        <pt x="472" y="300" on="1"/>
        <pt x="472" y="349" on="0"/>
        <pt x="407" y="405" on="0"/>
        <pt x="350" y="405" on="1"/>
        <pt x="293" y="405" on="0"/>
        <pt x="228" y="349" on="0"/>
        <pt x="228" y="300" on="1"/>
      </contour>
    </TTGlyph>
    <TTGlyph name="semicolon" xMin="250" yMin="-179" xMax="448" yMax="607">
      <component glyphName="period" x="0" y="432" flags="0x4"/>
      <component glyphName="comma" x="0" y="0" flags="0x0"/>
    </TTGlyph>
    <TTGlyph name="seven" xMin="86" yMin="0" xMax="596" yMax="800">
      <contour>
        <pt x="302" y="0" on="1"/>
        <pt x="185" y="0" on="1"/>
        <pt x="513" y="696" on="1"/>
        <pt x="86" y="696" on="1"/>
        <pt x="86" y="800" on="1"/>
        <pt x="596" y="800" on="1"/>
        <pt x="596" y="633" on="1"/>
      </contour>
    </TTGlyph>
    <TTGlyph name="six" xMin="75" yMin="-16" xMax="625" yMax="800">
      <contour>
        <pt x="267" y="-16" on="0"/>
        <pt x="143" y="51" on="0"/>
        <pt x="75" y="174" on="0"/>
        <pt x="75" y="255" on="1"/>
        <pt x="75" y="318" on="0"/>
        <pt x="115" y="436" on="0"/>
        <pt x="158" y="497" on="1"/>
        <pt x="361" y="800" on="1"/>
        <pt x="491" y="800" on="1"/>
        <pt x="277" y="492" on="1"/>
        <pt x="300" y="476" on="1"/>
        <pt x="313" y="490" on="0"/>
        <pt x="367" y="507" on="0"/>
        <pt x="399" y="507" on="1"/>
        <pt x="464" y="507" on="0"/>
        <pt x="567" y="442" on="0"/>
        <pt x="625" y="328" on="0"/>
        <pt x="625" y="255" on="1"/>
        <pt x="625" y="174" on="0"/>
        <pt x="557" y="51" on="0"/>
        <pt x="432" y="-16" on="0"/>
        <pt x="349" y="-16" on="1"/>
      </contour>
      <contour>
        <pt x="185" y="180" on="0"/>
        <pt x="276" y="88" on="0"/>
        <pt x="350" y="88" on="1"/>
        <pt x="424" y="88" on="0"/>
        <pt x="515" y="180" on="0"/>
        <pt x="515" y="255" on="1"/>
        <pt x="515" y="331" on="0"/>
        <pt x="424" y="422" on="0"/>
        <pt x="350" y="422" on="1"/>
        <pt x="276" y="422" on="0"/>
        <pt x="185" y="331" on="0"/>
        <pt x="185" y="255" on="1"/>
      </contour>
    </TTGlyph>
    <TTGlyph name="slash" xMin="125" yMin="-170" xMax="575" yMax="848">
      <contour>
        <pt x="227" y="-170" on="1"/>
        <pt x="125" y="-170" on="1"/>
        <pt x="473" y="848" on="1"/>
        <pt x="575" y="848" on="1"/>
      </contour>
    </TTGlyph>
    <TTGlyph name="sterling" xMin="96" yMin="0" xMax="623" yMax="816">
      <contour>
        <pt x="155" y="200" on="0"/>
        <pt x="212" y="261" on="0"/>
        <pt x="212" y="307" on="1"/>
        <pt x="212" y="328" on="0"/>
        <pt x="208" y="343" on="1"/>
        <pt x="96" y="343" on="1"/>
        <pt x="96" y="433" on="1"/>
        <pt x="175" y="433" on="1"/>
        <pt x="160" y="468" on="0"/>
        <pt x="142" y="537" on="0"/>
        <pt x="142" y="580" on="1"/>
        <pt x="142" y="691" on="0"/>
        <pt x="267" y="816" on="0"/>
        <pt x="377" y="816" on="1"/>
        <pt x="487" y="816" on="0"/>
        <pt x="613" y="682" on="0"/>
        <pt x="623" y="554" on="1"/>
        <pt x="513" y="554" on="1"/>
        <pt x="506" y="631" on="0"/>
        <pt x="436" y="712" on="0"/>
        <pt x="377" y="712" on="1"/>
        <pt x="318" y="712" on="0"/>
        <pt x="252" y="642" on="0"/>
        <pt x="252" y="580" on="1"/>
        <pt x="252" y="543" on="0"/>
        <pt x="270" y="482" on="0"/>
        <pt x="290" y="433" on="1"/>
        <pt x="485" y="433" on="1"/>
        <pt x="485" y="343" on="1"/>
        <pt x="319" y="343" on="1"/>
        <pt x="322" y="325" on="0"/>
        <pt x="322" y="307" on="1"/>
        <pt x="322" y="230" on="0"/>
        <pt x="230" y="130" on="0"/>
        <pt x="134" y="104" on="1"/>
        <pt x="604" y="104" on="1"/>
        <pt x="604" y="0" on="1"/>
        <pt x="96" y="0" on="1"/>
        <pt x="96" y="184" on="1"/>
      </contour>
    </TTGlyph>
    <TTGlyph name="t" xMin="82" yMin="-16" xMax="610" yMax="753">
      <contour>
        <pt x="319" y="599" on="1"/>
        <pt x="591" y="599" on="1"/>
        <pt x="591" y="501" on="1"/>
        <pt x="319" y="501" on="1"/>
        <pt x="319" y="195" on="1"/>
        <pt x="319" y="83" on="0"/>
        <pt x="409" y="83" on="1"/>
        <pt x="500" y="83" on="0"/>
        <pt x="510" y="208" on="1"/>
        <pt x="610" y="208" on="1"/>
        <pt x="601" y="99" on="0"/>
        <pt x="496" y="-16" on="0"/>
        <pt x="405" y="-16" on="1"/>
        <pt x="313" y="-16" on="0"/>
        <pt x="215" y="93" on="0"/>
        <pt x="215" y="195" on="1"/>
        <pt x="215" y="501" on="1"/>
        <pt x="82" y="501" on="1"/>
        <pt x="82" y="599" on="1"/>
        <pt x="215" y="599" on="1"/>
        <pt x="215" y="753" on="1"/>
        <pt x="319" y="753" on="1"/>
      </contour>
    </TTGlyph>
    <TTGlyph name="three" xMin="70" yMin="-16" xMax="620" yMax="816">
      <contour>
        <pt x="617" y="107" on="0"/>
        <pt x="476" y="-16" on="0"/>
        <pt x="353" y="-16" on="1"/>
        <pt x="230" y="-16" on="0"/>
        <pt x="86" y="114" on="0"/>
        <pt x="75" y="234" on="1"/>
        <pt x="188" y="234" on="1"/>
        <pt x="195" y="164" on="0"/>
        <pt x="282" y="88" on="0"/>
        <pt x="353" y="88" on="1"/>
        <pt x="425" y="88" on="0"/>
        <pt x="507" y="158" on="0"/>
        <pt x="507" y="219" on="1"/>
        <pt x="507" y="280" on="0"/>
        <pt x="432" y="350" on="0"/>
        <pt x="367" y="350" on="1"/>
        <pt x="276" y="350" on="1"/>
        <pt x="276" y="452" on="1"/>
        <pt x="367" y="452" on="1"/>
        <pt x="434" y="452" on="0"/>
        <pt x="510" y="521" on="0"/>
        <pt x="510" y="580" on="1"/>
        <pt x="510" y="641" on="0"/>
        <pt x="430" y="712" on="0"/>
        <pt x="361" y="712" on="1"/>
        <pt x="286" y="712" on="0"/>
        <pt x="195" y="631" on="0"/>
        <pt x="185" y="556" on="1"/>
        <pt x="70" y="556" on="1"/>
        <pt x="83" y="681" on="0"/>
        <pt x="234" y="816" on="0"/>
        <pt x="361" y="816" on="1"/>
        <pt x="482" y="816" on="0"/>
        <pt x="620" y="691" on="0"/>
        <pt x="620" y="583" on="1"/>
        <pt x="620" y="514" on="0"/>
        <pt x="547" y="425" on="0"/>
        <pt x="483" y="415" on="1"/>
        <pt x="483" y="386" on="1"/>
        <pt x="545" y="376" on="0"/>
        <pt x="617" y="284" on="0"/>
        <pt x="617" y="214" on="1"/>
      </contour>
    </TTGlyph>
    <TTGlyph name="two" xMin="85" yMin="0" xMax="622" yMax="816">
      <contour>
        <pt x="453" y="427" on="0"/>
        <pt x="512" y="515" on="0"/>
        <pt x="512" y="566" on="1"/>
        <pt x="512" y="634" on="0"/>
        <pt x="434" y="712" on="0"/>
        <pt x="366" y="712" on="1"/>
        <pt x="296" y="712" on="0"/>
        <pt x="211" y="631" on="0"/>
        <pt x="201" y="556" on="1"/>
        <pt x="85" y="556" on="1"/>
        <pt x="98" y="681" on="0"/>
        <pt x="243" y="816" on="0"/>
        <pt x="366" y="816" on="1"/>
        <pt x="485" y="816" on="0"/>
        <pt x="622" y="682" on="0"/>
        <pt x="622" y="566" on="1"/>
        <pt x="622" y="489" on="0"/>
        <pt x="541" y="361" on="0"/>
        <pt x="455" y="298" on="1"/>
        <pt x="187" y="104" on="1"/>
        <pt x="606" y="104" on="1"/>
        <pt x="606" y="0" on="1"/>
        <pt x="105" y="0" on="1"/>
        <pt x="105" y="164" on="1"/>
        <pt x="390" y="380" on="1"/>
      </contour>
    </TTGlyph>
    <TTGlyph name="u" xMin="105" yMin="-16" xMax="584" yMax="599">
      <contour>
        <pt x="480" y="0" on="1"/>
        <pt x="480" y="82" on="1"/>
        <pt x="451" y="82" on="1"/>
        <pt x="437" y="35" on="0"/>
        <pt x="359" y="-16" on="0"/>
        <pt x="301" y="-16" on="1"/>
        <pt x="212" y="-16" on="0"/>
        <pt x="105" y="108" on="0"/>
        <pt x="105" y="211" on="1"/>
        <pt x="105" y="599" on="1"/>
        <pt x="209" y="599" on="1"/>
        <pt x="209" y="239" on="1"/>
        <pt x="209" y="162" on="0"/>
        <pt x="278" y="82" on="0"/>
        <pt x="344" y="82" on="1"/>
        <pt x="410" y="82" on="0"/>
        <pt x="480" y="163" on="0"/>
        <pt x="480" y="239" on="1"/>
        <pt x="480" y="599" on="1"/>
        <pt x="584" y="599" on="1"/>
        <pt x="584" y="0" on="1"/>
      </contour>
    </TTGlyph>
    <TTGlyph name="underscore" xMin="83" yMin="-126" xMax="617" yMax="-50">
      <contour>
        <pt x="617" y="-50" on="1"/>
        <pt x="617" y="-126" on="1"/>
        <pt x="83" y="-126" on="1"/>
        <pt x="83" y="-50" on="1"/>
      </contour>
    </TTGlyph>
    <TTGlyph name="uni0237" xMin="100" yMin="-216" xMax="499" yMax="599">
      <contour>
        <pt x="499" y="599" on="1"/>
        <pt x="499" y="-19" on="1"/>
        <pt x="499" y="-113" on="0"/>
        <pt x="395" y="-216" on="0"/>
        <pt x="300" y="-216" on="1"/>
        <pt x="211" y="-216" on="0"/>
        <pt x="106" y="-127" on="0"/>
        <pt x="100" y="-46" on="1"/>
        <pt x="202" y="-46" on="1"/>
        <pt x="206" y="-83" on="0"/>
        <pt x="256" y="-121" on="0"/>
        <pt x="300" y="-121" on="1"/>
        <pt x="346" y="-121" on="0"/>
        <pt x="395" y="-69" on="0"/>
        <pt x="395" y="-19" on="1"/>
        <pt x="395" y="501" on="1"/>
        <pt x="134" y="501" on="1"/>
        <pt x="134" y="599" on="1"/>
      </contour>
    </TTGlyph>
    <TTGlyph name="uni0306.cy" xMin="3" yMin="880" xMax="341" yMax="1024">
      <contour>
        <pt x="101" y="952" on="0"/>
        <pt x="172" y="952" on="1"/>
        <pt x="243" y="952" on="0"/>
        <pt x="249" y="1024" on="1"/>
        <pt x="341" y="1024" on="1"/>
        <pt x="335" y="957" on="0"/>
        <pt x="245" y="880" on="0"/>
        <pt x="172" y="880" on="1"/>
        <pt x="99" y="880" on="0"/>
        <pt x="9" y="957" on="0"/>
        <pt x="3" y="1024" on="1"/>
        <pt x="95" y="1024" on="1"/>
      </contour>
    </TTGlyph>
    <TTGlyph name="uni0307" xMin="4" yMin="692" xMax="164" yMax="847">
      <contour>
        <pt x="48" y="692" on="0"/>
        <pt x="4" y="734" on="0"/>
        <pt x="4" y="769" on="1"/>
        <pt x="4" y="804" on="0"/>
        <pt x="48" y="847" on="0"/>
        <pt x="84" y="847" on="1"/>
        <pt x="120" y="847" on="0"/>
        <pt x="164" y="804" on="0"/>
        <pt x="164" y="769" on="1"/>
        <pt x="164" y="734" on="0"/>
        <pt x="120" y="692" on="0"/>
        <pt x="84" y="692" on="1"/>
      </contour>
    </TTGlyph>
    <TTGlyph name="uni0308" xMin="-141" yMin="871" xMax="241" yMax="1000">
      <contour>
        <pt x="-106" y="871" on="0"/>
        <pt x="-141" y="905" on="0"/>
        <pt x="-141" y="936" on="1"/>
        <pt x="-141" y="966" on="0"/>
        <pt x="-105" y="1000" on="0"/>
        <pt x="-74" y="1000" on="1"/>
        <pt x="-42" y="1000" on="0"/>
        <pt x="-6" y="966" on="0"/>
        <pt x="-6" y="936" on="1"/>
        <pt x="-6" y="905" on="0"/>
        <pt x="-42" y="871" on="0"/>
        <pt x="-74" y="871" on="1"/>
      </contour>
      <contour>
        <pt x="106" y="966" on="0"/>
        <pt x="142" y="1000" on="0"/>
        <pt x="174" y="1000" on="1"/>
        <pt x="205" y="1000" on="0"/>
        <pt x="241" y="966" on="0"/>
        <pt x="241" y="936" on="1"/>
        <pt x="241" y="905" on="0"/>
        <pt x="206" y="871" on="0"/>
        <pt x="174" y="871" on="1"/>
        <pt x="142" y="871" on="0"/>
        <pt x="106" y="905" on="0"/>
        <pt x="106" y="936" on="1"/>
      </contour>
    </TTGlyph>
    <TTGlyph name="uni043D" xMin="116" yMin="0" xMax="584" yMax="599">
      <contour>
        <pt x="220" y="599" on="1"/>
        <pt x="220" y="344" on="1"/>
        <pt x="480" y="344" on="1"/>
        <pt x="480" y="599" on="1"/>
        <pt x="584" y="599" on="1"/>
        <pt x="584" y="0" on="1"/>
        <pt x="480" y="0" on="1"/>
        <pt x="480" y="246" on="1"/>
        <pt x="220" y="246" on="1"/>
        <pt x="220" y="0" on="1"/>
        <pt x="116" y="0" on="1"/>
        <pt x="116" y="599" on="1"/>
      </contour>
    </TTGlyph>
    <TTGlyph name="uni043E" xMin="81" yMin="-16" xMax="619" yMax="615">
      <component glyphName="o" x="0" y="0" flags="0x0"/>
    </TTGlyph>
    <TTGlyph name="uni20BD" xMin="51" yMin="0" xMax="652" yMax="800">
      <contour>
        <pt x="516" y="800" on="0"/>
        <pt x="652" y="673" on="0"/>
        <pt x="652" y="562" on="1"/>
        <pt x="652" y="450" on="0"/>
        <pt x="516" y="323" on="0"/>
        <pt x="397" y="323" on="1"/>
        <pt x="259" y="323" on="1"/>
        <pt x="259" y="239" on="1"/>
        <pt x="443" y="239" on="1"/>
        <pt x="443" y="151" on="1"/>
        <pt x="259" y="151" on="1"/>
        <pt x="259" y="0" on="1"/>
        <pt x="155" y="0" on="1"/>
        <pt x="155" y="151" on="1"/>
        <pt x="51" y="151" on="1"/>
        <pt x="51" y="239" on="1"/>
        <pt x="155" y="239" on="1"/>
        <pt x="155" y="323" on="1"/>
        <pt x="51" y="323" on="1"/>
        <pt x="51" y="410" on="1"/>
        <pt x="155" y="410" on="1"/>
        <pt x="155" y="800" on="1"/>
        <pt x="397" y="800" on="1"/>
      </contour>
      <contour>
        <pt x="401" y="420" on="1"/>
        <pt x="467" y="420" on="0"/>
        <pt x="542" y="493" on="0"/>
        <pt x="542" y="558" on="1"/>
        <pt x="542" y="623" on="0"/>
        <pt x="467" y="696" on="0"/>
        <pt x="401" y="696" on="1"/>
        <pt x="259" y="696" on="1"/>
        <pt x="259" y="420" on="1"/>
      </contour>
    </TTGlyph>
    <TTGlyph name="v" xMin="66" yMin="0" xMax="634" yMax="599">
      <contour>
        <pt x="175" y="599" on="1"/>
        <pt x="353" y="49" on="1"/>
        <pt x="530" y="599" on="1"/>
        <pt x="634" y="599" on="1"/>
        <pt x="434" y="0" on="1"/>
        <pt x="265" y="0" on="1"/>
        <pt x="66" y="599" on="1"/>
      </contour>
    </TTGlyph>
    <TTGlyph name="w" xMin="32" yMin="0" xMax="668" yMax="599">
      <contour>
        <pt x="142" y="599" on="1"/>
        <pt x="216" y="63" on="1"/>
        <pt x="277" y="599" on="1"/>
        <pt x="431" y="599" on="1"/>
        <pt x="487" y="64" on="1"/>
        <pt x="562" y="599" on="1"/>
        <pt x="668" y="599" on="1"/>
        <pt x="558" y="0" on="1"/>
        <pt x="414" y="0" on="1"/>
        <pt x="351" y="553" on="1"/>
        <pt x="288" y="0" on="1"/>
        <pt x="142" y="0" on="1"/>
        <pt x="32" y="599" on="1"/>
      </contour>
    </TTGlyph>
    <TTGlyph name="x" xMin="75" yMin="0" xMax="625" yMax="599">
      <contour>
        <pt x="263" y="285" on="1"/>
        <pt x="75" y="599" on="1"/>
        <pt x="192" y="599" on="1"/>
        <pt x="349" y="332" on="1"/>
        <pt x="514" y="599" on="1"/>
        <pt x="625" y="599" on="1"/>
        <pt x="433" y="295" on="1"/>
        <pt x="614" y="0" on="1"/>
        <pt x="496" y="0" on="1"/>
        <pt x="348" y="248" on="1"/>
        <pt x="197" y="0" on="1"/>
        <pt x="86" y="0" on="1"/>
      </contour>
    </TTGlyph>
    <TTGlyph name="y" xMin="55" yMin="-216" xMax="645" yMax="599">
      <contour>
        <pt x="174" y="599" on="1"/>
        <pt x="371" y="78" on="1"/>
        <pt x="532" y="599" on="1"/>
        <pt x="645" y="599" on="1"/>
        <pt x="426" y="-75" on="1"/>
        <pt x="404" y="-145" on="0"/>
        <pt x="324" y="-216" on="0"/>
        <pt x="268" y="-216" on="1"/>
        <pt x="196" y="-216" on="0"/>
        <pt x="109" y="-132" on="0"/>
        <pt x="100" y="-55" on="1"/>
        <pt x="202" y="-55" on="1"/>
        <pt x="209" y="-88" on="0"/>
        <pt x="240" y="-119" on="0"/>
        <pt x="265" y="-119" on="1"/>
        <pt x="287" y="-119" on="0"/>
        <pt x="320" y="-83" on="0"/>
        <pt x="332" y="-47" on="1"/>
        <pt x="362" y="50" on="1"/>
        <pt x="273" y="50" on="1"/>
        <pt x="55" y="599" on="1"/>
      </contour>
    </TTGlyph>
    <TTGlyph name="yen" xMin="44" yMin="0" xMax="656" yMax="800">
      <contour>
        <pt x="351" y="453" on="1"/>
        <pt x="536" y="800" on="1"/>
        <pt x="656" y="800" on="1"/>
        <pt x="428" y="387" on="1"/>
        <pt x="582" y="387" on="1"/>
        <pt x="582" y="300" on="1"/>
        <pt x="404" y="300" on="1"/>
        <pt x="404" y="215" on="1"/>
        <pt x="582" y="215" on="1"/>
        <pt x="582" y="128" on="1"/>
        <pt x="404" y="128" on="1"/>
        <pt x="404" y="0" on="1"/>
        <pt x="296" y="0" on="1"/>
        <pt x="296" y="128" on="1"/>
        <pt x="118" y="128" on="1"/>
        <pt x="118" y="215" on="1"/>
        <pt x="296" y="215" on="1"/>
        <pt x="296" y="300" on="1"/>
        <pt x="118" y="300" on="1"/>
        <pt x="118" y="387" on="1"/>
        <pt x="272" y="387" on="1"/>
        <pt x="44" y="800" on="1"/>
        <pt x="166" y="800" on="1"/>
      </contour>
    </TTGlyph>
    <TTGlyph name="z" xMin="126" yMin="0" xMax="574" yMax="599">
      <contour>
        <pt x="574" y="599" on="1"/>
        <pt x="574" y="419" on="1"/>
        <pt x="180" y="98" on="1"/>
        <pt x="574" y="98" on="1"/>
        <pt x="574" y="0" on="1"/>
        <pt x="126" y="0" on="1"/>
        <pt x="126" y="180" on="1"/>
        <pt x="520" y="501" on="1"/>
        <pt x="126" y="501" on="1"/>
        <pt x="126" y="599" on="1"/>
      </contour>
    </TTGlyph>
    <TTGlyph name="zero" xMin="61" yMin="-16" xMax="639" yMax="816">
      <contour>
        <pt x="61" y="-16" on="0"/>
        <pt x="61" y="400" on="1"/>
        <pt x="61" y="816" on="0"/>
        <pt x="350" y="816" on="1"/>
        <pt x="639" y="816" on="0"/>
        <pt x="639" y="400" on="1"/>
        <pt x="639" y="-16" on="0"/>
        <pt x="350" y="-16" on="1"/>
      </contour>
      <contour>
        <pt x="169" y="361" on="0"/>
        <pt x="172" y="326" on="1"/>
        <pt x="510" y="583" on="1"/>
        <pt x="490" y="650" on="0"/>
        <pt x="411" y="714" on="0"/>
        <pt x="350" y="714" on="1"/>
        <pt x="257" y="714" on="0"/>
        <pt x="169" y="561" on="0"/>
        <pt x="169" y="400" on="1"/>
      </contour>
      <contour>
        <pt x="210" y="150" on="0"/>
        <pt x="289" y="86" on="0"/>
        <pt x="350" y="86" on="1"/>
        <pt x="443" y="86" on="0"/>
        <pt x="531" y="239" on="0"/>
        <pt x="531" y="400" on="1"/>
        <pt x="531" y="440" on="0"/>
        <pt x="528" y="474" on="1"/>
        <pt x="190" y="217" on="1"/>
      </contour>
    </TTGlyph>
</ttFont>
